<svg width="580" height="33" viewBox="0 0 580 33" fill="none" xmlns="http://www.w3.org/2000/svg">
<path d="M514.994 0.910317C514.989 0.811199 514.96 0.714719 514.91 0.628806C514.86 0.542893 514.79 0.470002 514.706 0.416123C514.622 0.362245 514.526 0.328918 514.427 0.318882C514.327 0.308846 514.226 0.322387 514.133 0.358393L512.56 0.968556C512.554 0.759792 512.548 0.628979 512.545 0.591348C512.536 0.431297 512.465 0.280829 512.347 0.170852C512.23 0.0608753 512.074 -0.000261099 511.912 8.38231e-07H499.089C498.927 -0.000261099 498.772 0.0608753 498.654 0.170852C498.536 0.280829 498.466 0.431297 498.456 0.591348C498.456 0.628979 498.447 0.759792 498.441 0.968556L496.868 0.358393C496.775 0.322209 496.674 0.308527 496.575 0.318476C496.475 0.328426 496.379 0.36172 496.295 0.415618C496.21 0.469516 496.14 0.542474 496.09 0.628482C496.04 0.714491 496.011 0.811088 496.006 0.910317C495.975 1.9423 496.066 2.97436 496.277 3.98532C496.752 6.21721 497.787 7.81026 499.271 8.59156C499.297 8.60503 499.324 8.6167 499.352 8.6265C499.804 10.0807 500.463 11.456 501.431 12.4792C502.379 13.472 503.529 14.0409 504.859 14.1762V17.2225H501.857C501.689 17.2225 501.528 17.2886 501.41 17.4062C501.291 17.5239 501.224 17.6834 501.224 17.8497C501.224 18.0161 501.291 18.1756 501.41 18.2932C501.528 18.4108 501.689 18.4769 501.857 18.4769H509.144C509.312 18.4769 509.473 18.4108 509.592 18.2932C509.71 18.1756 509.777 18.0161 509.777 17.8497C509.777 17.6834 509.71 17.5239 509.592 17.4062C509.473 17.2886 509.312 17.2225 509.144 17.2225H506.133V14.1762C507.463 14.0409 508.614 13.472 509.561 12.4792C510.534 11.4578 511.195 10.0825 511.645 8.6265C511.672 8.6167 511.7 8.60503 511.726 8.59156C513.21 7.81026 514.245 6.21721 514.72 3.98532C514.932 2.9745 515.024 1.94244 514.994 0.910317ZM497.282 1.86543L498.438 2.31342C498.466 3.78789 498.615 5.25768 498.883 6.70821C497.643 5.33377 497.347 3.10009 497.282 1.86543ZM508.64 11.62C507.782 12.516 506.755 12.9568 505.501 12.9568C504.246 12.9568 503.219 12.516 502.361 11.62C499.814 8.94995 499.678 3.12876 499.704 1.25796H511.297C511.324 3.12608 511.187 8.94637 508.64 11.62ZM513.481 3.73086C513.175 5.17339 512.658 6.10342 512.12 6.70373C512.387 5.25458 512.535 3.78633 512.563 2.31342L513.72 1.86543C513.689 2.4912 513.609 3.11365 513.481 3.72728V3.73086Z" fill="#E9E9E9"/>
<path d="M508.64 11.62C507.782 12.516 506.755 12.9568 505.501 12.9568C504.246 12.9568 503.219 12.516 502.361 11.62C499.814 8.94995 499.678 3.12876 499.704 1.25796H511.297C511.324 3.12608 511.187 8.94637 508.64 11.62Z" fill="#E9E9E9"/>
<path d="M511.295 19.7461H499.707C499.539 19.7461 499.378 19.8122 499.259 19.9298C499.141 20.0474 499.074 20.2069 499.074 20.3733C499.074 20.5396 499.141 20.6991 499.259 20.8168C499.378 20.9344 499.539 21.0005 499.707 21.0005H511.295C511.463 21.0005 511.624 20.9344 511.742 20.8168C511.861 20.6991 511.928 20.5396 511.928 20.3733C511.928 20.2069 511.861 20.0474 511.742 19.9298C511.624 19.8122 511.463 19.7461 511.295 19.7461Z" fill="#E9E9E9"/>
<rect x="5" y="27" width="570" height="2" rx="1" fill="#E9E9E9"/>
<circle cx="5" cy="28" r="5" fill="#FFD800"/>
<circle cx="147" cy="28" r="5" fill="#E9E9E9"/>
<circle cx="290" cy="28" r="5" fill="#E9E9E9"/>
<circle cx="432" cy="28" r="5" fill="#E9E9E9"/>
<circle cx="575" cy="28" r="5" fill="#E9E9E9"/>
<line x1="7" y1="28" x2="79" y2="28" stroke="#FFD800" stroke-width="2"/>
<line x1="79.5" y1="25" x2="79.5" y2="31" stroke="#FFD800"/>
</svg>
