<svg width="33" height="29" viewBox="0 0 33 29" fill="none" xmlns="http://www.w3.org/2000/svg">
<g opacity="0.4">
<path d="M26.6853 22.7189H19.867V21.3825H26.6853C29.3165 21.3825 31.4581 19.2836 31.4581 16.705C31.4581 14.1258 29.3165 12.0276 26.6853 12.0276C26.3083 12.0276 26.0035 11.7283 26.0035 11.3594V10.6912C26.0035 5.53271 22.027 1.3364 17.1396 1.3364C13.1884 1.3364 8.9576 3.75262 8.9576 7.35022C8.9576 7.71906 8.65214 8.01842 8.27577 8.01842C4.51613 8.01842 1.45742 11.016 1.45742 14.7004C1.45742 18.3849 4.51613 21.3825 8.27577 21.3825H13.0486V22.7189H8.27577C3.76407 22.7189 0.09375 19.1219 0.09375 14.7004C0.09375 10.4928 3.41769 7.03149 7.62802 6.70674C8.06985 2.54585 12.7697 0 17.1396 0C22.7791 0 27.3671 4.79635 27.3671 10.6912V10.728C30.4313 11.0614 32.8218 13.6146 32.8218 16.705C32.8218 20.0207 30.0693 22.7189 26.6853 22.7189ZM16.4578 28.0645C16.0814 28.0645 15.7759 27.7651 15.7759 27.3963V12.0276C15.7759 11.6588 16.0814 11.3594 16.4578 11.3594C16.8342 11.3594 17.1396 11.6588 17.1396 12.0276V27.3963C17.1396 27.7651 16.8342 28.0645 16.4578 28.0645ZM19.867 15.3686C19.7163 15.3686 19.5676 15.3205 19.4408 15.2223L16.4578 12.8836L13.4748 15.2223C13.1816 15.4528 12.7513 15.4061 12.5168 15.1181C12.2815 14.8294 12.3293 14.4091 12.6231 14.1792L16.0323 11.5064C16.2812 11.3113 16.6351 11.3113 16.8839 11.5064L20.2931 14.1792C20.5877 14.4098 20.6347 14.8301 20.3995 15.1181C20.2652 15.2831 20.0667 15.3686 19.867 15.3686Z" fill="black"/>
</g>
</svg>
