<svg width="13" height="13" viewBox="0 0 13 13" fill="none" xmlns="http://www.w3.org/2000/svg">
<g opacity="0.8">
<path d="M6.5 0C2.90715 0 0 2.9074 0 6.5C0 10.0928 2.9074 13 6.5 13C10.0928 13 13 10.0926 13 6.5C13 2.90715 10.0926 0 6.5 0ZM6.5 11.9844C3.46854 11.9844 1.01562 9.53126 1.01562 6.5C1.01562 3.46854 3.46874 1.01562 6.5 1.01562C9.53146 1.01562 11.9844 3.46874 11.9844 6.5C11.9844 9.53146 9.53126 11.9844 6.5 11.9844Z" fill="#2D2D2D"/>
<path d="M6.5 3.27161C6.21954 3.27161 5.99219 3.49895 5.99219 3.77942V7.04955C5.99219 7.33002 6.21954 7.55737 6.5 7.55737C6.78046 7.55737 7.00781 7.33002 7.00781 7.04955V3.77942C7.00781 3.49895 6.78046 3.27161 6.5 3.27161Z" fill="#2D2D2D"/>
<path d="M6.50391 9.5498C6.88252 9.5498 7.18945 9.24287 7.18945 8.86426C7.18945 8.48564 6.88252 8.17871 6.50391 8.17871C6.12529 8.17871 5.81836 8.48564 5.81836 8.86426C5.81836 9.24287 6.12529 9.5498 6.50391 9.5498Z" fill="#2D2D2D"/>
</g>
</svg>
