<svg width="10" height="12" viewBox="0 0 10 12" fill="none" xmlns="http://www.w3.org/2000/svg">
<path d="M9.95131 0.478226C9.94859 0.426156 9.93348 0.375471 9.90721 0.330337C9.88094 0.285204 9.84427 0.246911 9.80021 0.218606C9.75616 0.190302 9.70597 0.172794 9.65378 0.167521C9.60159 0.162249 9.54889 0.169363 9.5 0.188278L8.676 0.508822C8.67269 0.39915 8.66937 0.330428 8.66795 0.310659C8.66311 0.226578 8.62606 0.147531 8.56441 0.0897555C8.50276 0.0319802 8.42119 -0.000137166 8.33646 4.40357e-07H1.61847C1.53373 -0.000137166 1.45216 0.0319802 1.39051 0.0897555C1.32886 0.147531 1.29181 0.226578 1.28697 0.310659C1.28697 0.330428 1.28223 0.39915 1.27892 0.508822L0.454916 0.188278C0.406006 0.169269 0.353253 0.162082 0.301 0.167309C0.248748 0.172535 0.198493 0.190026 0.154375 0.218341C0.110257 0.246656 0.0735379 0.284983 0.0472434 0.330167C0.0209489 0.375351 0.00583103 0.426097 0.00313536 0.478226C-0.0132213 1.02037 0.034461 1.56255 0.145205 2.09365C0.393826 3.26615 0.936058 4.10305 1.71365 4.51349C1.72742 4.52057 1.74166 4.5267 1.75627 4.53185C1.99305 5.29579 2.33828 6.0183 2.84547 6.55584C3.34177 7.07737 3.94462 7.37626 4.64123 7.44733V9.0477H3.06852C2.9806 9.0477 2.89629 9.08241 2.83412 9.1442C2.77195 9.20599 2.73703 9.2898 2.73703 9.37718C2.73703 9.46457 2.77195 9.54837 2.83412 9.61016C2.89629 9.67195 2.9806 9.70667 3.06852 9.70667H6.8864C6.97432 9.70667 7.05864 9.67195 7.1208 9.61016C7.18297 9.54837 7.2179 9.46457 7.2179 9.37718C7.2179 9.2898 7.18297 9.20599 7.1208 9.1442C7.05864 9.08241 6.97432 9.0477 6.8864 9.0477H5.30896V7.44733C6.00557 7.37626 6.60842 7.07737 7.10471 6.55584C7.61427 6.01924 7.96092 5.29673 8.19628 4.53185C8.21089 4.5267 8.22513 4.52057 8.2389 4.51349C9.01649 4.10305 9.55873 3.26615 9.80735 2.09365C9.91873 1.56262 9.96705 1.02044 9.95131 0.478226ZM0.671809 0.979987L1.2775 1.21533C1.29194 1.98993 1.36987 2.76207 1.51049 3.52409C0.860761 2.80205 0.705906 1.6286 0.671809 0.979987ZM6.62215 6.10444C6.17274 6.57514 5.63477 6.80672 4.97746 6.80672C4.32015 6.80672 3.78218 6.57514 3.33277 6.10444C1.99826 4.70177 1.92676 1.64367 1.94049 0.660856H8.01443C8.02817 1.64225 7.95666 4.69989 6.62215 6.10444ZM9.15856 1.95997C8.99803 2.71779 8.72715 3.20637 8.44538 3.52174C8.58538 2.76044 8.66299 1.98911 8.67742 1.21533L9.28359 0.979987C9.26723 1.30873 9.22543 1.63573 9.15856 1.95809V1.95997Z" fill="#4C4C4C"/>
<path d="M8.01295 10.3733H1.94185C1.85393 10.3733 1.76961 10.408 1.70744 10.4698C1.64528 10.5316 1.61035 10.6154 1.61035 10.7028C1.61035 10.7902 1.64528 10.874 1.70744 10.9358C1.76961 10.9975 1.85393 11.0323 1.94185 11.0323H8.01295C8.10087 11.0323 8.18518 10.9975 8.24735 10.9358C8.30952 10.874 8.34444 10.7902 8.34444 10.7028C8.34444 10.6154 8.30952 10.5316 8.24735 10.4698C8.18518 10.408 8.10087 10.3733 8.01295 10.3733Z" fill="#4C4C4C"/>
</svg>
