<svg width="18" height="18" viewBox="0 0 18 18" fill="none" xmlns="http://www.w3.org/2000/svg">
<g opacity="0.6" clip-path="url(#clip0)">
<path d="M16.543 4.63467C16.5338 4.1487 16.525 3.6896 16.525 3.24546C16.525 2.89751 16.243 2.61542 15.8949 2.61542C13.2004 2.61542 11.1489 1.84105 9.43888 0.178398C9.19425 -0.0595079 8.80497 -0.0594239 8.56043 0.178398C6.85057 1.84105 4.79939 2.61542 2.10506 2.61542C1.7571 2.61542 1.47501 2.89751 1.47501 3.24546C1.47501 3.68969 1.46628 4.14895 1.45695 4.63501C1.37059 9.15756 1.25231 15.3514 8.79329 17.9653C8.86016 17.9885 8.92989 18.0001 8.99961 18.0001C9.06934 18.0001 9.13915 17.9885 9.20593 17.9653C16.7475 15.3513 16.6294 9.15731 16.543 4.63467ZM8.9997 16.7014C2.53231 14.352 2.6301 9.20536 2.71687 4.65903C2.72208 4.38618 2.72712 4.12173 2.73065 3.86249C5.2542 3.75597 7.27219 2.99126 8.9997 1.48637C10.7274 2.99126 12.7457 3.75605 15.2694 3.86249C15.2729 4.12165 15.278 4.38593 15.2832 4.65861C15.3699 9.20511 15.4676 14.3519 8.9997 16.7014Z" fill="#2D2D2D"/>
<path d="M11.1693 6.81145L8.12834 9.85223L6.8307 8.55458C6.58464 8.30861 6.1857 8.30861 5.93973 8.55458C5.69367 8.80072 5.69367 9.19958 5.93973 9.44564L7.68286 11.1888C7.80584 11.3118 7.96713 11.3732 8.12834 11.3732C8.28955 11.3732 8.45084 11.3118 8.57383 11.1888L12.0602 7.70251C12.3063 7.45645 12.3063 7.05751 12.0602 6.81154C11.8143 6.56548 11.4153 6.5654 11.1693 6.81145Z" fill="#2D2D2D"/>
</g>
<defs>
<clipPath id="clip0">
<rect width="18" height="18" fill="white"/>
</clipPath>
</defs>
</svg>
