<svg width="20" height="20" viewBox="0 0 20 20" fill="none" xmlns="http://www.w3.org/2000/svg">
<g clip-path="url(#clip0)">
<path d="M18.3811 5.14964C18.3709 4.60966 18.3611 4.09956 18.3611 3.60607C18.3611 3.21945 18.0477 2.90602 17.661 2.90602C14.6671 2.90602 12.3877 2.04561 10.4876 0.19822C10.2158 -0.0661198 9.7833 -0.0660265 9.51159 0.19822C7.61174 2.04561 5.33266 2.90602 2.33896 2.90602C1.95234 2.90602 1.63891 3.21945 1.63891 3.60607C1.63891 4.09965 1.6292 4.60994 1.61884 5.15001C1.52288 10.1751 1.39146 17.0571 9.77033 19.9614C9.84463 19.9872 9.9221 20.0001 9.99957 20.0001C10.077 20.0001 10.1546 19.9872 10.2288 19.9614C18.6083 17.057 18.4771 10.1748 18.3811 5.14964ZM9.99967 18.5571C2.81368 15.9467 2.92233 10.2282 3.01875 5.1767C3.02454 4.87354 3.03014 4.5797 3.03406 4.29165C5.838 4.1733 8.08022 3.32362 9.99967 1.65153C11.9193 3.32362 14.1619 4.17339 16.966 4.29165C16.9699 4.57961 16.9755 4.87326 16.9813 5.17624C17.0777 10.2279 17.1862 15.9466 9.99967 18.5571Z" fill="#40CB3D"/>
<path d="M12.4103 7.56828L9.03151 10.9469L7.58968 9.50509C7.31629 9.23179 6.87301 9.23179 6.59971 9.50509C6.32632 9.77858 6.32632 10.2218 6.59971 10.4952L8.53652 12.432C8.67317 12.5686 8.85239 12.6369 9.03151 12.6369C9.21063 12.6369 9.38984 12.5686 9.52649 12.432L13.4002 8.55834C13.6737 8.28495 13.6737 7.84167 13.4003 7.56837C13.127 7.29498 12.6837 7.29489 12.4103 7.56828Z" fill="#40CB3D"/>
</g>
<defs>
<clipPath id="clip0">
<rect width="20" height="20" fill="white"/>
</clipPath>
</defs>
</svg>
