<svg width="32" height="32" viewBox="0 0 32 32" fill="none" xmlns="http://www.w3.org/2000/svg">
<circle cx="16" cy="16" r="16" fill="#FFD800"/>
<g clip-path="url(#clip0)">
<path d="M20.5227 20.5475C20.5227 20.1759 20.2221 19.8753 19.8505 19.8753H12.1499C11.7784 19.8753 11.4778 20.1759 11.4778 20.5475C11.4778 20.919 11.7784 21.2196 12.1499 21.2196H19.8505C20.2221 21.2196 20.5227 20.9178 20.5227 20.5475Z" fill="#2D2D2D"/>
<path d="M10.7994 15.1066C10.8104 15.1066 10.8202 15.1066 10.8312 15.1054L11.8969 18.9624H16.0008H20.1034L21.1691 15.1054C21.1801 15.1054 21.1899 15.1066 21.2009 15.1066C21.6421 15.1066 22.0002 14.7486 22.0002 14.3074C22.0002 13.8662 21.6421 13.5081 21.2009 13.5081C20.7597 13.5081 20.4016 13.8662 20.4016 14.3074C20.4016 14.3929 20.4151 14.476 20.4407 14.553L18.5134 15.6798L16.442 12.2457C16.6571 12.1027 16.8 11.857 16.8 11.5796C16.8 11.1384 16.442 10.7803 16.0008 10.7803C15.5596 10.7803 15.2015 11.1384 15.2015 11.5796C15.2015 11.8582 15.3433 12.1027 15.5596 12.2457L13.4881 15.6798L11.5608 14.553C11.5853 14.476 11.5999 14.3929 11.5999 14.3074C11.5999 13.8662 11.2419 13.5081 10.8007 13.5081C10.3583 13.5081 10.0002 13.8662 10.0002 14.3074C10.0002 14.7486 10.3582 15.1066 10.7994 15.1066Z" fill="#2D2D2D"/>
</g>
<defs>
<clipPath id="clip0">
<rect width="12" height="12" fill="white" transform="translate(10 10)"/>
</clipPath>
</defs>
</svg>
