<svg width="17" height="17" viewBox="0 0 17 17" fill="none" xmlns="http://www.w3.org/2000/svg">
<g opacity="0.4">
<path d="M4.24059 4.84458C4.07346 4.67745 4.07771 4.40752 4.24475 4.24048C4.41179 4.07344 4.6774 4.07351 4.84452 4.24064L8.48277 7.87889L12.1193 4.24234C12.2866 4.07557 12.5609 4.07565 12.728 4.24278C12.8951 4.40991 12.8909 4.67983 12.7239 4.84687L9.0873 8.48342L12.7255 12.1217C12.8927 12.2888 12.8971 12.5587 12.73 12.7258C12.563 12.8928 12.2887 12.8927 12.1216 12.7256L8.48337 9.08735L4.84682 12.7239C4.67978 12.8909 4.40985 12.8952 4.24272 12.7281C4.07559 12.5609 4.07552 12.2867 4.24256 12.1196L7.87911 8.48309L4.24059 4.84458Z" fill="black"/>
</g>
</svg>
