<svg width="12" height="12" viewBox="0 0 12 12" fill="none" xmlns="http://www.w3.org/2000/svg">
<path d="M11.9965 0.591214C11.9932 0.526841 11.975 0.464181 11.9433 0.408384C11.9117 0.352587 11.8675 0.305247 11.8144 0.270255C11.7612 0.235263 11.7007 0.213619 11.6378 0.207101C11.5749 0.200583 11.5114 0.209377 11.4524 0.232762L10.4591 0.629038C10.4551 0.493454 10.4511 0.408496 10.4494 0.384056C10.4436 0.28011 10.3989 0.182387 10.3246 0.110962C10.2502 0.039536 10.1519 -0.000169573 10.0498 5.44397e-07H1.95109C1.84895 -0.000169573 1.75061 0.039536 1.67629 0.110962C1.60197 0.182387 1.5573 0.28011 1.55147 0.384056C1.55147 0.408496 1.54576 0.493454 1.54176 0.629038L0.548411 0.232762C0.489449 0.209261 0.425853 0.200376 0.362862 0.206837C0.299871 0.213299 0.239287 0.234923 0.186102 0.269927C0.132917 0.304931 0.0886514 0.352315 0.0569528 0.408174C0.0252543 0.464033 0.00702942 0.526769 0.00377974 0.591214C-0.0159385 1.26145 0.0415435 1.93172 0.175047 2.5883C0.474765 4.03782 1.12844 5.07245 2.06584 5.57987C2.08244 5.58861 2.09961 5.5962 2.11722 5.60256C2.40267 6.54699 2.81885 7.44021 3.43027 8.10474C4.02857 8.74949 4.75531 9.119 5.59509 9.20687V11.1853H3.69916C3.59318 11.1853 3.49153 11.2283 3.41659 11.3046C3.34164 11.381 3.29954 11.4846 3.29954 11.5927C3.29954 11.7007 3.34164 11.8043 3.41659 11.8807C3.49153 11.9571 3.59318 12 3.69916 12H8.30169C8.40768 12 8.50933 11.9571 8.58427 11.8807C8.65921 11.8043 8.70132 11.7007 8.70132 11.5927C8.70132 11.4846 8.65921 11.381 8.58427 11.3046C8.50933 11.2283 8.40768 11.1853 8.30169 11.1853H6.40005V9.20687C7.23983 9.119 7.96658 8.74949 8.56487 8.10474C9.17915 7.44137 9.59705 6.54815 9.88078 5.60256C9.89839 5.5962 9.91556 5.58861 9.93216 5.57987C10.8696 5.07245 11.5232 4.03782 11.823 2.5883C11.9572 1.93182 12.0155 1.26154 11.9965 0.591214ZM0.809879 1.21152L1.54005 1.50247C1.55746 2.46008 1.6514 3.41465 1.82093 4.35671C1.03766 3.46407 0.850983 2.01338 0.809879 1.21152ZM7.98313 7.5467C7.44136 8.1286 6.79283 8.4149 6.00043 8.4149C5.20803 8.4149 4.5595 8.1286 4.01772 7.5467C2.40895 5.81263 2.32274 2.03201 2.3393 0.816992H9.66156C9.67811 2.03026 9.59191 5.8103 7.98313 7.5467ZM11.0408 2.42304C10.8473 3.35991 10.5207 3.96392 10.1811 4.3538C10.3498 3.41264 10.4434 2.45906 10.4608 1.50247L11.1915 1.21152C11.1718 1.61793 11.1214 2.02219 11.0408 2.42072V2.42304Z" fill="#4C4C4C"/>
<path d="M7.98313 7.5467C7.44136 8.1286 6.79283 8.4149 6.00043 8.4149C5.20803 8.4149 4.5595 8.1286 4.01772 7.5467C2.40895 5.81263 2.32274 2.03201 2.3393 0.816992H9.66156C9.67811 2.03026 9.59191 5.8103 7.98313 7.5467Z" fill="#4C4C4C"/>
<path d="M4.9091 6.5454C3.81819 5.99994 3.27274 3.81813 3.27274 2.18176H4.9091V6.5454Z" fill="white" stroke="white"/>
</svg>
