<svg width="14" height="14" viewBox="0 0 14 14" fill="none" xmlns="http://www.w3.org/2000/svg">
<g opacity="0.4">
<path d="M0.911612 12.4217L0.823742 12.3339L0.911093 12.2455L4.24686 8.87018C3.59593 8.03117 3.20833 6.97736 3.20833 5.83333C3.20833 3.09492 5.42825 0.875 8.16667 0.875C10.9051 0.875 13.125 3.09492 13.125 5.83333C13.125 8.57175 10.9051 10.7917 8.16667 10.7917C7.02264 10.7917 5.96883 10.4041 5.12982 9.75314L1.75453 13.0889L1.66615 13.1763L1.57828 13.0884L0.911612 12.4217ZM4.45833 5.83333C4.45833 7.88139 6.11861 9.54167 8.16667 9.54167C10.2147 9.54167 11.875 7.88139 11.875 5.83333C11.875 3.78528 10.2147 2.125 8.16667 2.125C6.11861 2.125 4.45833 3.78528 4.45833 5.83333Z" fill="black" stroke="black" stroke-width="0.25"/>
</g>
</svg>
