<svg width="47" height="48" viewBox="0 0 47 48" fill="none" xmlns="http://www.w3.org/2000/svg">
<path d="M0 0H47V48H8C3.58172 48 0 44.4183 0 40V0Z" fill="#FFEF99"/>
<g clip-path="url(#clip0)">
<path d="M33.5903 18.5934H29.0608L27.6319 15.0103C27.5421 14.7851 27.3246 14.6373 27.0826 14.6373H20.7722C20.5302 14.6373 20.3127 14.7851 20.2229 15.0103L18.794 18.5934H18.2085V18C18.2085 17.0184 17.4123 16.2198 16.4336 16.2198C15.455 16.2198 14.6589 17.0184 14.6589 18V18.5934H14.2645C13.9377 18.5934 13.6729 18.8591 13.6729 19.1868V31.0549C13.6729 31.3827 13.9377 31.6483 14.2645 31.6483H33.5903C33.9171 31.6483 34.1819 31.3826 34.1819 31.0549V19.1868C34.1819 18.8591 33.917 18.5934 33.5903 18.5934ZM15.8421 18C15.8421 17.6728 16.1075 17.4066 16.4337 17.4066C16.7599 17.4066 17.0253 17.6728 17.0253 18V18.5934H15.8421V18ZM32.9987 30.4615H14.856V19.7802H15.2504H17.6169H19.1945C19.4365 19.7802 19.654 19.6325 19.7438 19.4072L21.1727 15.8242H26.6821L28.111 19.4072C28.2009 19.6325 28.4184 19.7802 28.6603 19.7802H32.9988V30.4615H32.9987Z" fill="#B18A00"/>
<path d="M23.9274 19.3846C21.209 19.3846 18.9974 21.603 18.9974 24.3297C18.9974 27.0564 21.209 29.2747 23.9274 29.2747C26.6459 29.2747 28.8575 27.0564 28.8575 24.3297C28.8575 21.6029 26.6459 19.3846 23.9274 19.3846ZM23.9274 28.0879C21.8614 28.0879 20.1806 26.402 20.1806 24.3297C20.1806 22.2574 21.8614 20.5714 23.9274 20.5714C25.9935 20.5714 27.6743 22.2574 27.6743 24.3297C27.6743 26.402 25.9935 28.0879 23.9274 28.0879Z" fill="#B18A00"/>
<path d="M31.4211 20.967H29.8435C29.5167 20.967 29.2519 21.2327 29.2519 21.5604C29.2519 21.8882 29.5168 22.1538 29.8435 22.1538H31.4211C31.7479 22.1538 32.0127 21.8881 32.0127 21.5604C32.0127 21.2327 31.7478 20.967 31.4211 20.967Z" fill="#B18A00"/>
</g>
<defs>
<clipPath id="clip0">
<rect width="20.5091" height="20.5714" fill="white" transform="translate(13.6729 12.8572)"/>
</clipPath>
</defs>
</svg>
