<svg width="14" height="14" viewBox="0 0 14 14" fill="none" xmlns="http://www.w3.org/2000/svg">
<g clip-path="url(#clip0)">
<path d="M11.8285 13.0393H11.0053V11.5638C11.0053 10.0711 10.1861 8.69892 8.69854 7.70006C8.51357 7.57585 8.39861 7.30768 8.39861 6.99997C8.39861 6.69225 8.51357 6.42417 8.69864 6.29987C10.1861 5.30111 11.0053 3.92896 11.0054 2.43619V0.960722H11.8285C12.0937 0.960722 12.3087 0.745678 12.3087 0.480338C12.3087 0.214997 12.0937 0 11.8285 0H2.17186C1.90662 0 1.69153 0.214997 1.69153 0.48029C1.69153 0.745631 1.90662 0.960675 2.17186 0.960675H2.99504V2.43624C2.99504 3.92901 3.81415 5.30115 5.30178 6.29992C5.48675 6.42422 5.60172 6.6923 5.60172 7.00001C5.60172 7.30778 5.48675 7.5759 5.30169 7.7002C3.81415 8.69897 2.99504 10.0711 2.99504 11.5639V13.0393H2.17186C1.90662 13.0393 1.69153 13.2544 1.69153 13.5197C1.69153 13.7851 1.90662 14.0001 2.17186 14.0001H11.8284C12.0937 14.0001 12.3087 13.7851 12.3087 13.5197C12.3087 13.2544 12.0937 13.0393 11.8285 13.0393ZM3.95575 11.5638C3.95575 9.99531 5.13449 8.96958 5.83722 8.49783C6.2913 8.19298 6.56244 7.63303 6.56244 7.00001C6.56244 6.36704 6.2913 5.80709 5.83722 5.50229C5.13449 5.03053 3.95575 4.00481 3.95575 2.43629V0.960722H10.0446L10.0445 2.43629C10.0445 4.00481 8.86574 5.03053 8.1631 5.5022C7.70893 5.80714 7.43779 6.36709 7.43779 7.00001C7.43779 7.63308 7.70893 8.19294 8.16301 8.49783C8.86574 8.96958 10.0445 9.99531 10.0446 11.5638V13.0393H3.95575V11.5638Z" fill="#4C4C4C"/>
</g>
<defs>
<clipPath id="clip0">
<rect width="14" height="14" fill="white" transform="matrix(1 0 0 -1 0 14)"/>
</clipPath>
</defs>
</svg>
