<svg width="44" height="44" viewBox="0 0 44 44" fill="none" xmlns="http://www.w3.org/2000/svg">
<circle cx="22" cy="22" r="21.5" stroke="#E9E9E9"/>
<path d="M28.9495 15.8884H18.7332C17.8168 15.8884 16.9379 16.2399 16.2899 16.8655C15.6419 17.4912 15.2778 18.3397 15.2778 19.2245V28.3523C15.2781 28.4243 15.3 28.4947 15.341 28.5549C15.3821 28.615 15.4403 28.6624 15.5088 28.6911C15.5772 28.7198 15.6528 28.7286 15.7263 28.7165C15.7998 28.7044 15.8681 28.6718 15.9228 28.6229L18.8983 25.9429H25.878C26.7945 25.9429 27.6733 25.5914 28.3213 24.9658C28.9693 24.3402 29.3334 23.4916 29.3334 22.6069V16.2591C29.3334 16.1608 29.2929 16.0665 29.2209 15.997C29.1489 15.9275 29.0513 15.8884 28.9495 15.8884ZM28.5655 22.6069C28.5655 23.295 28.2824 23.955 27.7784 24.4416C27.2744 24.9282 26.5908 25.2016 25.878 25.2016H18.7466C18.6496 25.2019 18.5563 25.2376 18.4855 25.3016L16.0457 27.4942V19.2245C16.0457 18.5363 16.3288 17.8763 16.8328 17.3897C17.3368 16.9031 18.0204 16.6298 18.7332 16.6298H28.5655V22.6069ZM18.7293 21.1242C18.7293 21.0094 18.7646 20.8973 18.8306 20.8019C18.8966 20.7065 18.9905 20.6321 19.1002 20.5882C19.21 20.5443 19.3308 20.5328 19.4474 20.5552C19.564 20.5776 19.671 20.6328 19.755 20.714C19.8391 20.7951 19.8963 20.8985 19.9195 21.011C19.9427 21.1235 19.9308 21.2402 19.8853 21.3462C19.8398 21.4522 19.7628 21.5428 19.664 21.6065C19.5652 21.6703 19.449 21.7043 19.3302 21.7043C19.1712 21.7038 19.0188 21.6424 18.9066 21.5337C18.7943 21.425 18.7313 21.2777 18.7313 21.1242H18.7293ZM21.7048 21.1242C21.7044 21.0094 21.7393 20.897 21.8051 20.8014C21.8709 20.7057 21.9646 20.6311 22.0743 20.5869C22.1841 20.5427 22.305 20.531 22.4216 20.5531C22.5383 20.5753 22.6456 20.6304 22.7298 20.7115C22.814 20.7925 22.8714 20.8959 22.8948 21.0085C22.9181 21.121 22.9063 21.2378 22.8609 21.3439C22.8155 21.45 22.7385 21.5407 22.6396 21.6045C22.5408 21.6683 22.4245 21.7024 22.3056 21.7024C22.1469 21.7019 21.9949 21.6409 21.8827 21.5325C21.7705 21.4242 21.7072 21.2774 21.7067 21.1242H21.7048ZM24.6802 21.1242C24.6802 21.0094 24.7154 20.8973 24.7815 20.8019C24.8475 20.7065 24.9413 20.6321 25.0511 20.5882C25.1609 20.5443 25.2817 20.5328 25.3983 20.5552C25.5148 20.5776 25.6219 20.6328 25.7059 20.714C25.7899 20.7951 25.8472 20.8985 25.8703 21.011C25.8935 21.1235 25.8816 21.2402 25.8362 21.3462C25.7907 21.4522 25.7137 21.5428 25.6149 21.6065C25.516 21.6703 25.3999 21.7043 25.281 21.7043C25.122 21.7038 24.9697 21.6424 24.8574 21.5337C24.7452 21.425 24.6821 21.2777 24.6821 21.1242H24.6802Z" fill="black"/>
</svg>
