<svg width="17" height="17" viewBox="0 0 17 17" fill="none" xmlns="http://www.w3.org/2000/svg">
<g opacity="0.4">
<path d="M4.24065 4.84458C4.07352 4.67745 4.07777 4.40752 4.24481 4.24048C4.41185 4.07344 4.67746 4.07351 4.84459 4.24064L8.48283 7.87889L12.1194 4.24234C12.2867 4.07557 12.5609 4.07565 12.7281 4.24278C12.8952 4.40991 12.891 4.67983 12.7239 4.84687L9.08736 8.48342L12.7256 12.1217C12.8927 12.2888 12.8971 12.5587 12.7301 12.7258C12.5631 12.8928 12.2888 12.8927 12.1217 12.7256L8.48343 9.08735L4.84688 12.7239C4.67984 12.8909 4.40991 12.8952 4.24278 12.7281C4.07565 12.5609 4.07558 12.2867 4.24262 12.1196L7.87917 8.48309L4.24065 4.84458Z" fill="black"/>
</g>
</svg>
