<svg width="90" height="35" viewBox="0 0 90 35" fill="none" xmlns="http://www.w3.org/2000/svg">
<g opacity="0.3">
<path d="M83.7888 5.30555C83.8568 8.17211 83.4035 11.0849 82.7461 13.859C81.3634 19.569 78.5298 25.0709 73.8149 28.6541C70.3467 31.3126 66.1531 32.6997 61.8688 33.162C61.1434 33.2314 61.1434 34.3872 61.8688 34.3179C69.2359 33.5088 75.8323 29.9949 79.9126 23.5914C82.7234 19.176 84.2195 13.9515 84.7409 8.75004C84.8542 7.61729 84.9449 6.46142 84.9222 5.30555C84.8996 4.56579 83.7662 4.56579 83.7888 5.30555Z" fill="white"/>
<path d="M71.5487 31.2894C71.5487 31.2894 67.8311 26.8971 72.5914 23.5913C72.5914 23.5913 76.309 28.0067 71.5487 31.2894Z" fill="white"/>
<path d="M76.3754 27.4751C76.3754 27.4751 71.5698 23.2446 76.2848 18.806C76.2848 18.806 81.0904 23.0596 76.3754 27.4751Z" fill="white"/>
<path d="M73.5197 30.0409C73.5197 30.0409 76.9199 24.5621 81.9068 28.677C81.9068 28.677 78.5066 34.1558 73.5197 30.0409Z" fill="white"/>
<path d="M79.1176 23.9383C79.1176 23.9383 80.727 18.5982 85.782 20.8637C85.782 20.8637 84.1952 26.2038 79.1176 23.9383Z" fill="white"/>
<path d="M81.9973 17.7654C81.9973 17.7654 83.2667 12.3328 88.4577 14.2516C88.4577 14.2516 87.1883 19.6841 81.9973 17.7654Z" fill="white"/>
<path d="M83.6061 12.1479C83.6061 12.1479 83.3794 5.44388 89.9985 5.9987C89.9985 5.9987 90.2252 12.6796 83.6061 12.1479Z" fill="white"/>
<path d="M80.6604 21.7413C80.6604 21.7413 75.4921 18.7361 79.051 13.7889C79.051 13.7889 84.2193 16.7942 80.6604 21.7413Z" fill="white"/>
<path d="M82.972 14.8528C82.972 14.8528 77.509 13.1421 79.8212 7.73267C79.8212 7.75578 85.2842 9.46647 82.972 14.8528Z" fill="white"/>
<path d="M84.0846 9.09665C84.0846 9.09665 77.6469 6.66932 80.7751 0.358276C80.7751 0.358276 87.2128 2.7856 84.0846 9.09665Z" fill="white"/>
<path d="M5.1024 5.30531C5.01173 8.42615 5.55576 11.6626 6.32648 14.6678C7.84524 20.5859 10.9281 26.1341 15.8244 29.7866C19.4286 32.4682 23.7582 33.8322 28.1558 34.3176C28.8812 34.387 28.8812 33.2311 28.1558 33.1618C20.9701 32.3758 14.6003 28.8157 10.7694 22.4815C8.20793 18.251 6.84784 13.3039 6.39448 8.37992C6.30381 7.36275 6.2358 6.32247 6.25847 5.30531C6.25847 4.56555 5.12507 4.56555 5.1024 5.30531Z" fill="white"/>
<path d="M18.4543 31.2894C18.4543 31.2894 22.1719 26.8971 17.4116 23.5913C17.4116 23.5913 13.694 28.0067 18.4543 31.2894Z" fill="white"/>
<path d="M13.6463 27.4752C13.6463 27.4752 18.4519 23.2447 13.737 18.8062C13.7143 18.8062 8.90867 23.0598 13.6463 27.4752Z" fill="white"/>
<path d="M16.5016 30.0409C16.5016 30.0409 13.1014 24.5621 8.11441 28.677C8.11441 28.677 11.5146 34.1558 16.5016 30.0409Z" fill="white"/>
<path d="M10.8832 23.9383C10.8832 23.9383 9.27373 18.5982 4.21875 20.8637C4.21875 20.8637 5.82818 26.2038 10.8832 23.9383Z" fill="white"/>
<path d="M8.02723 17.7654C8.02723 17.7654 6.75782 12.3328 1.56682 14.2516C1.54416 14.2516 2.81357 19.6841 8.02723 17.7654Z" fill="white"/>
<path d="M6.39333 12.1477C6.39333 12.1477 6.62001 5.44363 0.000931468 5.99845C0.000931468 5.99845 -0.22575 12.6794 6.39333 12.1477Z" fill="white"/>
<path d="M9.36236 21.7414C9.36236 21.7414 14.5307 18.7362 10.9718 13.7891C10.9718 13.7891 5.80347 16.7943 9.36236 21.7414Z" fill="white"/>
<path d="M7.05117 14.8529C7.05117 14.8529 12.5142 13.1423 10.202 7.73279C10.202 7.75591 4.73902 9.46659 7.05117 14.8529Z" fill="white"/>
<path d="M5.91764 9.09653C5.91764 9.09653 12.3554 6.6692 9.22718 0.358154C9.22718 0.358154 2.78945 2.78548 5.91764 9.09653Z" fill="white"/>
</g>
</svg>
