<svg width="21" height="23" viewBox="0 0 21 23" fill="none" xmlns="http://www.w3.org/2000/svg">
<path d="M20.9939 0.997014C20.9881 0.888456 20.9563 0.782787 20.9008 0.688692C20.8454 0.594598 20.7681 0.514764 20.6751 0.455754C20.5822 0.396744 20.4763 0.360243 20.3662 0.349251C20.2561 0.338259 20.1449 0.353091 20.0418 0.392526L18.3034 1.0608C18.2964 0.832154 18.2894 0.688882 18.2864 0.647667C18.2762 0.472373 18.198 0.307575 18.068 0.187124C17.9379 0.0666729 17.7658 -0.000285966 17.5871 9.18062e-07H3.41441C3.23565 -0.000285966 3.06357 0.0666729 2.93351 0.187124C2.80345 0.307575 2.72528 0.472373 2.71507 0.647667C2.71507 0.688882 2.70508 0.832154 2.69808 1.0608L0.959719 0.392526C0.856535 0.352895 0.745243 0.337911 0.635008 0.348808C0.524774 0.359704 0.418753 0.39617 0.325678 0.455201C0.232604 0.514231 0.15514 0.594138 0.0996675 0.688338C0.044195 0.782537 0.0123015 0.888335 0.00661454 0.997014C-0.0278924 2.12728 0.072701 3.25763 0.306333 4.36488C0.83084 6.80933 1.97476 8.5541 3.61522 9.4098C3.64427 9.42455 3.67431 9.43734 3.70514 9.44807C4.20467 11.0407 4.93298 12.5471 6.00298 13.6677C7.04999 14.755 8.3218 15.3781 9.79142 15.5263V18.8628H6.47354C6.28806 18.8628 6.11018 18.9352 5.97902 19.064C5.84787 19.1928 5.77419 19.3675 5.77419 19.5497C5.77419 19.7319 5.84787 19.9066 5.97902 20.0354C6.11018 20.1642 6.28806 20.2366 6.47354 20.2366H14.528C14.7134 20.2366 14.8913 20.1642 15.0225 20.0354C15.1536 19.9066 15.2273 19.7319 15.2273 19.5497C15.2273 19.3675 15.1536 19.1928 15.0225 19.064C14.8913 18.9352 14.7134 18.8628 14.528 18.8628H11.2001V15.5263C12.6697 15.3781 13.9415 14.755 14.9885 13.6677C16.0635 12.549 16.7948 11.0427 17.2914 9.44807C17.3222 9.43734 17.3522 9.42455 17.3813 9.4098C19.0217 8.5541 20.1657 6.80933 20.6902 4.36488C20.9251 3.25778 21.0271 2.12744 20.9939 0.997014ZM1.41729 2.04309L2.69509 2.53375C2.72556 4.14864 2.88995 5.75842 3.18662 7.34708C1.81591 5.84175 1.48922 3.39534 1.41729 2.04309ZM13.9705 12.7266C13.0224 13.7079 11.8874 14.1908 10.5007 14.1908C9.11405 14.1908 7.97912 13.7079 7.03101 12.7266C4.21566 9.80233 4.0648 3.42674 4.09377 1.37776H16.9077C16.9367 3.4238 16.7858 9.7984 13.9705 12.7266ZM19.3215 4.08618C18.9828 5.6661 18.4113 6.6847 17.8169 7.34218C18.1122 5.75502 18.276 4.14693 18.3064 2.53375L19.5852 2.04309C19.5507 2.72846 19.4625 3.41019 19.3215 4.08226V4.08618Z" fill="#FA842D"/>
<path d="M13.9705 12.7266C13.0224 13.7079 11.8874 14.1908 10.5007 14.1908C9.11405 14.1908 7.97912 13.7079 7.03101 12.7266C4.21566 9.80233 4.0648 3.42674 4.09377 1.37776H16.9077C16.9367 3.4238 16.7858 9.7984 13.9705 12.7266Z" fill="#FA842D"/>
<path d="M16.9047 21.6262H4.09677C3.9113 21.6262 3.73342 21.6986 3.60226 21.8274C3.47111 21.9562 3.39743 22.131 3.39743 22.3131C3.39743 22.4953 3.47111 22.67 3.60226 22.7989C3.73342 22.9277 3.9113 23.0001 4.09677 23.0001H16.9047C17.0902 23.0001 17.2681 22.9277 17.3992 22.7989C17.5304 22.67 17.6041 22.4953 17.6041 22.3131C17.6041 22.131 17.5304 21.9562 17.3992 21.8274C17.2681 21.6986 17.0902 21.6262 16.9047 21.6262Z" fill="#FA842D"/>
<path d="M10.252 3.21289C10.5762 3.21289 10.873 3.25977 11.1426 3.35352C11.4121 3.44727 11.6445 3.58008 11.8398 3.75195C12.0352 3.92383 12.1855 4.13086 12.291 4.37305C12.4004 4.61523 12.4551 4.88477 12.4551 5.18164C12.4551 5.42773 12.4238 5.64648 12.3613 5.83789C12.3027 6.0293 12.2168 6.19727 12.1035 6.3418C11.9902 6.48633 11.8535 6.60938 11.6934 6.71094C11.5332 6.80859 11.3535 6.88867 11.1543 6.95117C11.6426 7.08398 12.0098 7.30664 12.2559 7.61914C12.502 7.92773 12.625 8.31641 12.625 8.78516C12.625 9.14062 12.5586 9.46094 12.4258 9.74609C12.293 10.0273 12.1113 10.2676 11.8809 10.4668C11.6543 10.666 11.3887 10.8184 11.084 10.9238C10.7793 11.0293 10.4551 11.082 10.1113 11.082C9.71289 11.082 9.37305 11.0332 9.0918 10.9355C8.81055 10.834 8.57031 10.6934 8.37109 10.5137C8.17188 10.334 8.00781 10.123 7.87891 9.88086C7.75 9.63867 7.64258 9.37305 7.55664 9.08398L7.97852 8.90234C8.0918 8.85547 8.19922 8.8418 8.30078 8.86133C8.40625 8.88086 8.48242 8.93945 8.5293 9.03711C8.57617 9.13867 8.63281 9.25977 8.69922 9.40039C8.76953 9.53711 8.86328 9.66992 8.98047 9.79883C9.09766 9.92383 9.24609 10.0312 9.42578 10.1211C9.60547 10.207 9.83008 10.25 10.0996 10.25C10.3574 10.25 10.582 10.207 10.7734 10.1211C10.9648 10.0312 11.125 9.91797 11.2539 9.78125C11.3828 9.64453 11.4785 9.49023 11.541 9.31836C11.6074 9.14648 11.6406 8.97852 11.6406 8.81445C11.6406 8.61133 11.6152 8.42383 11.5645 8.25195C11.5137 8.07617 11.418 7.92773 11.2773 7.80664C11.1367 7.68164 10.9414 7.58398 10.6914 7.51367C10.4453 7.44336 10.127 7.4082 9.73633 7.4082V6.69922C10.0566 6.69531 10.3281 6.66016 10.5508 6.59375C10.7734 6.52344 10.9551 6.42969 11.0957 6.3125C11.2363 6.19531 11.3379 6.05469 11.4004 5.89062C11.4629 5.72656 11.4941 5.54688 11.4941 5.35156C11.4941 5.13281 11.4609 4.94336 11.3945 4.7832C11.332 4.61914 11.2422 4.48242 11.125 4.37305C11.0117 4.26367 10.875 4.18359 10.7148 4.13281C10.5586 4.07812 10.3867 4.05078 10.1992 4.05078C10.0117 4.05078 9.83984 4.08008 9.68359 4.13867C9.53125 4.19336 9.39453 4.27148 9.27344 4.37305C9.15234 4.4707 9.04883 4.58984 8.96289 4.73047C8.88086 4.86719 8.81836 5.01758 8.77539 5.18164C8.74414 5.31445 8.68945 5.40234 8.61133 5.44531C8.53711 5.48438 8.43164 5.49414 8.29492 5.47461L7.7793 5.39258C7.83008 5.03711 7.92578 4.72461 8.06641 4.45508C8.20703 4.18164 8.38477 3.95312 8.59961 3.76953C8.81836 3.58594 9.06641 3.44727 9.34375 3.35352C9.625 3.25977 9.92773 3.21289 10.252 3.21289Z" fill="black"/>
</svg>
