<svg width="10" height="11" viewBox="0 0 10 11" fill="none" xmlns="http://www.w3.org/2000/svg">
<path opacity="0.4" d="M8.91609 7.86298L6.83935 6.98738C6.64348 6.9047 6.52174 6.7386 6.52174 6.5538V5.93395C6.57152 5.88262 6.62391 5.82413 6.67804 5.7596C6.94739 5.43877 7.16326 5.08163 7.32022 4.69645C7.62696 4.57783 7.82609 4.32208 7.82609 4.03333V3.3C7.82609 3.12345 7.74783 2.9524 7.6087 2.81875V1.8436C7.62087 1.74277 7.6687 1.14253 7.15391 0.64735C6.70739 0.2178 5.98283 0 5 0C4.01717 0 3.29261 0.2178 2.84609 0.647167C2.3313 1.14235 2.37913 1.74277 2.3913 1.8436V2.81875C2.25217 2.9524 2.17391 3.12345 2.17391 3.3V4.03333C2.17391 4.25645 2.29413 4.46453 2.49935 4.60332C2.69848 5.26827 3.11522 5.76932 3.26087 5.9301V6.53675C3.26087 6.71422 3.14609 6.87702 2.96152 6.96208L1.02217 7.85418C0.391522 8.1444 0 8.70063 0 9.30637V9.9C0 10.7701 3.27065 11 5 11C6.72935 11 10 10.7701 10 9.9V9.34212C10 8.71182 9.58457 8.14495 8.91609 7.86298Z" fill="black"/>
</svg>
