<svg width="44" height="44" viewBox="0 0 44 44" fill="none" xmlns="http://www.w3.org/2000/svg">
<circle cx="22" cy="22" r="21.5" stroke="#E9E9E9"/>
<path d="M24.5372 22.7287C23.846 23.1709 23.033 23.4072 22.2011 23.4072C21.0855 23.4072 20.0161 22.9828 19.2282 22.2284C18.4404 21.4741 17.9985 20.4517 17.9985 19.3865C17.9985 18.592 18.2445 17.8151 18.7059 17.1539C19.1673 16.4928 19.8234 15.977 20.5918 15.6723C21.3601 15.3675 22.2057 15.2878 23.0216 15.4431C23.8374 15.5985 24.5864 15.982 25.174 16.5445C25.7615 17.1071 26.1612 17.8234 26.3231 18.6027C26.485 19.382 26.4019 20.1898 26.0843 20.924C25.7666 21.6584 25.2284 22.2865 24.5372 22.7287ZM23.9051 16.9395C23.4004 16.6166 22.8074 16.4445 22.2011 16.4445C21.3881 16.4445 20.6077 16.7537 20.0319 17.305C19.456 17.8565 19.1317 18.6051 19.1317 19.3865C19.1317 19.9691 19.3122 20.5383 19.6499 21.0222C19.9875 21.506 20.4671 21.8827 21.0276 22.1049C21.588 22.3272 22.2045 22.3853 22.7993 22.272C23.3941 22.1588 23.9408 21.8791 24.3703 21.4679C24.7997 21.0567 25.0926 20.5324 25.2113 19.961C25.33 19.3897 25.2691 18.7975 25.0363 18.2595C24.8036 17.7216 24.4097 17.2624 23.9051 16.9395Z" fill="black" stroke="white" stroke-width="0.15"/>
<path d="M29.3726 27.3336L29.3728 27.3338C29.4744 27.3983 29.5509 27.492 29.5918 27.6005C29.6326 27.709 29.6359 27.8271 29.6011 27.9374C29.5663 28.0478 29.4951 28.1451 29.3973 28.2146C29.2995 28.2841 29.1806 28.3218 29.058 28.3218L29.0575 28.3218C28.9454 28.3225 28.836 28.2909 28.7435 28.2313L28.7434 28.2313C26.748 26.9517 24.4009 26.2688 21.9999 26.2688C19.599 26.2688 17.2519 26.9517 15.2565 28.2312C15.1311 28.3109 14.9773 28.3398 14.829 28.3112C14.6808 28.2825 14.5514 28.1988 14.4688 28.0796C14.3862 27.9606 14.3567 27.8156 14.3861 27.6763C14.4006 27.6072 14.4293 27.5414 14.4706 27.4826C14.5119 27.4238 14.565 27.3732 14.627 27.3338L14.6273 27.3336C16.8084 25.9354 19.3745 25.1888 21.9999 25.1888C24.6254 25.1888 27.1914 25.9354 29.3726 27.3336ZM28.7029 28.2944C28.8078 28.3619 28.9316 28.3976 29.058 28.3968L14.5868 27.2705C14.5166 27.3151 14.4562 27.3726 14.4092 27.4395C14.3622 27.5065 14.3294 27.5817 14.3127 27.6608C14.279 27.8206 14.313 27.9866 14.4071 28.1224C14.5013 28.2582 14.6479 28.3526 14.8148 28.3848C14.9817 28.4171 15.1551 28.3845 15.2969 28.2944C17.28 27.0227 19.6131 26.3438 21.9999 26.3438C24.3867 26.3438 26.7198 27.0227 28.7029 28.2944Z" fill="black" stroke="white" stroke-width="0.15"/>
</svg>
