<svg width="46" height="46" viewBox="0 0 46 46" fill="none" xmlns="http://www.w3.org/2000/svg">
<g opacity="0.2">
<path d="M23 18.4001C19.1889 18.4001 16.1 21.4904 16.1 25.3001C16.1 29.1112 19.1889 32.2001 23 32.2001C26.8102 32.2001 29.9 29.1112 29.9 25.3001C29.9 21.4904 26.8102 18.4001 23 18.4001ZM41.4 11.5001H35.88C35.121 11.5001 34.3031 10.9113 34.0635 10.1909L32.6365 5.9088C32.396 5.1889 31.579 4.6001 30.82 4.6001H15.18C14.421 4.6001 13.6031 5.1889 13.3635 5.90926L11.9365 10.1914C11.696 10.9113 10.879 11.5001 10.12 11.5001H4.6C2.07 11.5001 0 13.5701 0 16.1001V36.8001C0 39.3301 2.07 41.4001 4.6 41.4001H41.4C43.93 41.4001 46 39.3301 46 36.8001V16.1001C46 13.5701 43.93 11.5001 41.4 11.5001ZM23 36.8001C16.6488 36.8001 11.5 31.6513 11.5 25.3001C11.5 18.9493 16.6488 13.8001 23 13.8001C29.3503 13.8001 34.5 18.9493 34.5 25.3001C34.5 31.6513 29.3503 36.8001 23 36.8001ZM39.79 19.3169C38.9013 19.3169 38.18 18.5965 38.18 17.7069C38.18 16.8182 38.9013 16.0969 39.79 16.0969C40.6796 16.0969 41.4 16.8182 41.4 17.7069C41.4 18.5965 40.6792 19.3169 39.79 19.3169Z" fill="#030104"/>
</g>
</svg>
