<svg width="12" height="12" viewBox="0 0 12 12" fill="none" xmlns="http://www.w3.org/2000/svg">
<path d="M11.7024 4.88393L10.6315 4.75529C10.5221 4.34683 10.3618 3.96092 10.1554 3.60286L10.8211 2.75665C10.9229 2.62658 10.9114 2.42547 10.7938 2.30835L9.69024 1.20439C9.57408 1.08776 9.37248 1.07528 9.24192 1.17703L8.39424 1.84373C8.0376 1.63734 7.65168 1.47702 7.24416 1.36855L7.116 0.29771C7.09632 0.134037 6.94512 0.00012207 6.78 0.00012207H5.21904C5.05392 0.00012207 4.90272 0.134037 4.88352 0.29771L4.75488 1.36855C4.34688 1.4775 3.96048 1.6383 3.60384 1.84421L2.75664 1.17847C2.62704 1.07672 2.42544 1.08872 2.3088 1.20535L1.2048 2.30979C1.08864 2.42594 1.07664 2.62754 1.17888 2.75809L1.84416 3.60478C1.63776 3.96188 1.47744 4.34827 1.36848 4.75673L0.29808 4.88489C0.1344 4.90409 0 5.05528 0 5.22087V6.78177C0 6.94688 0.13392 7.09712 0.29808 7.11728L1.36896 7.24591C1.4784 7.65294 1.63824 8.03884 1.84464 8.39595L1.17936 9.24359C1.07808 9.37367 1.0896 9.57478 1.20672 9.69189L2.3088 10.7963C2.42544 10.9125 2.62704 10.9254 2.75664 10.8237L3.60432 10.1565C3.96144 10.3629 4.34736 10.5237 4.75536 10.6322L4.884 11.7025C4.90368 11.8667 5.0544 12.0001 5.21952 12.0001H6.78048C6.94608 12.0001 7.0968 11.8667 7.116 11.7025L7.24464 10.6322C7.65312 10.5227 8.03904 10.3624 8.39568 10.1565L9.24336 10.8222C9.37344 10.924 9.57456 10.912 9.6912 10.7954L10.7947 9.69093C10.9118 9.57478 10.9238 9.37319 10.8216 9.24215L10.1554 8.39547C10.3622 8.03836 10.5221 7.65246 10.6315 7.24495L11.7019 7.11632C11.8661 7.09664 12 6.94688 12 6.78081V5.21991C12.0005 5.05384 11.867 4.90361 11.7024 4.88393ZM6.00048 8.99976C4.34352 8.99976 3.00048 7.65678 3.00048 5.99988C3.00048 4.34299 4.34352 3 6.00048 3C7.65744 3 9.00048 4.34299 9.00048 5.99988C9.00048 7.65678 7.65792 8.99976 6.00048 8.99976Z" fill="#FFD800"/>
</svg>
