<svg width="12" height="12" viewBox="0 0 12 12" fill="none" xmlns="http://www.w3.org/2000/svg">
<g opacity="0.8">
<path d="M10.6722 0.971296L10.6722 0.971262L10.6705 0.971989L1.11547 4.97325C1.00581 5.01487 0.938221 5.12487 0.951706 5.24631C0.964866 5.36482 1.04462 5.4605 1.15462 5.48818C1.15474 5.48821 1.15486 5.48824 1.15497 5.48827L5.39041 6.60819L6.50963 10.8463C6.50965 10.8464 6.50968 10.8465 6.50971 10.8466C6.53736 10.9567 6.63297 11.0365 6.75146 11.0497L6.75143 11.05H6.75698H6.76803C6.87755 11.05 6.97228 10.9817 7.01285 10.887L7.013 10.8867L11.022 1.31643C11.0765 1.21777 11.0481 1.09476 10.9666 1.0254C10.884 0.944038 10.7746 0.932878 10.6722 0.971296ZM5.67612 6.13206L2.06211 5.17481L10.2759 1.73059L6.82303 9.93891L5.86631 6.32236L5.86632 6.32236L5.86605 6.32142C5.83922 6.22744 5.77101 6.15918 5.67706 6.13232L5.67706 6.13231L5.67612 6.13206Z" fill="#2D2D2D" stroke="black" stroke-width="0.1"/>
<path d="M10.4659 1.13743L10.4658 1.13746L5.4173 6.20022C5.41729 6.20023 5.41727 6.20025 5.41726 6.20026C5.3094 6.30822 5.30942 6.47248 5.4173 6.58043C5.47056 6.63373 5.5384 6.66141 5.60733 6.66141C5.67625 6.66141 5.74409 6.63373 5.79735 6.58043L5.79739 6.58039L10.8459 1.51763C10.8459 1.51762 10.8459 1.51761 10.8459 1.51761C10.9538 1.40965 10.9538 1.24537 10.8459 1.13743C10.738 1.02945 10.5738 1.02945 10.4659 1.13743Z" fill="#2D2D2D" stroke="black" stroke-width="0.1"/>
</g>
</svg>
