<svg width="10" height="10" viewBox="0 0 10 10" fill="none" xmlns="http://www.w3.org/2000/svg">
<g opacity="0.6">
<path d="M9.99392 7.88576C10.0151 8.04808 9.96564 8.18921 9.84573 8.30916L8.43794 9.70631C8.37443 9.77688 8.29153 9.83691 8.18921 9.88626C8.08689 9.93567 7.98635 9.96743 7.88759 9.98152C7.88054 9.98152 7.85932 9.98334 7.82402 9.98687C7.78878 9.99038 7.74292 9.99218 7.68646 9.99218C7.55235 9.99218 7.33534 9.96924 7.03544 9.92336C6.73553 9.87747 6.36861 9.76455 5.93466 9.58464C5.50061 9.4047 5.00843 9.13475 4.45803 8.77489C3.90763 8.41506 3.32192 7.92106 2.70093 7.29301C2.20697 6.8061 1.79769 6.34036 1.47308 5.89581C1.14848 5.45123 0.887386 5.04018 0.689801 4.66265C0.492198 4.28513 0.34401 3.94288 0.245217 3.63592C0.146425 3.32896 0.0793869 3.06433 0.0441038 2.84205C0.00882076 2.61977 -0.00529246 2.44512 0.00176415 2.3181C0.00882076 2.19108 0.0123491 2.12051 0.0123491 2.1064C0.0264623 2.00761 0.058217 1.90705 0.107613 1.80473C0.15701 1.70241 0.216991 1.61949 0.287557 1.55598L1.69535 0.148189C1.79414 0.0493963 1.90705 0 2.03407 0C2.1258 0 2.20695 0.0264623 2.27752 0.0793868C2.34809 0.132311 2.40807 0.197585 2.45746 0.275208L3.59005 2.42395C3.65356 2.53685 3.6712 2.66034 3.64297 2.79442C3.61475 2.92849 3.55477 3.0414 3.46303 3.13313L2.94437 3.6518C2.93026 3.66591 2.91791 3.68884 2.90732 3.7206C2.89674 3.75235 2.89145 3.77881 2.89145 3.79998C2.91967 3.94817 2.98318 4.11753 3.08197 4.30806C3.16665 4.47742 3.2972 4.68382 3.47362 4.92728C3.65003 5.17073 3.90054 5.45121 4.22514 5.76876C4.54269 6.0934 4.82496 6.34564 5.07194 6.52562C5.31887 6.70549 5.52534 6.83785 5.69117 6.92253C5.857 7.00721 5.98402 7.05837 6.07221 7.07596L6.20449 7.10244C6.2186 7.10244 6.24159 7.09713 6.27331 7.08657C6.30506 7.07596 6.328 7.06363 6.34213 7.0495L6.94545 6.43558C7.07254 6.32269 7.22066 6.26623 7.39003 6.26623C7.51003 6.26623 7.60524 6.28739 7.67581 6.32974H7.68638L9.72925 7.53642C9.87749 7.62823 9.96568 7.74463 9.99392 7.88576Z" fill="#2D2D2D"/>
</g>
</svg>
