<svg width="18" height="14" viewBox="0 0 18 14" fill="none" xmlns="http://www.w3.org/2000/svg">
<g opacity="0.4">
<path d="M9 14C8.90951 14 8.81925 13.9829 8.73465 13.9489C8.64643 13.9134 6.54861 13.0609 4.42221 11.5258C3.15785 10.6129 2.14636 9.64624 1.41631 8.65266C0.47649 7.37371 0 6.04658 0 4.70818C0 3.37312 0.438161 2.2185 1.26709 1.36927C2.14159 0.473529 3.37398 0 4.83089 0C5.86914 0 6.92667 0.430766 7.974 1.28041C8.38834 1.61647 8.73601 1.9665 9 2.25959C9.26399 1.96671 9.61166 1.61647 10.026 1.28041C11.0733 0.430766 12.1309 0 13.1691 0C14.626 0 15.8584 0.473529 16.7329 1.36927C17.5618 2.2185 18 3.37291 18 4.70818C18 6.04679 17.5235 7.37392 16.5837 8.65266C15.8536 9.64624 14.8422 10.6129 13.5778 11.5258C11.4514 13.0609 9.35357 13.9134 9.26535 13.9489C9.18075 13.9829 9.09026 14 9 14ZM4.83089 1.21741C3.76021 1.21741 2.86846 1.55117 2.25204 2.18262C1.64469 2.80467 1.32356 3.6781 1.32356 4.70797C1.32356 9.06674 7.61748 12.1046 8.99955 12.719C10.3805 12.1038 16.6762 9.05923 16.6762 4.70797C16.6762 3.67789 16.3553 2.80467 15.7477 2.18262C15.1313 1.55117 14.2396 1.21741 13.1689 1.21741C11.3988 1.21741 9.77994 3.30261 9.601 3.54021C9.46447 3.7219 9.23972 3.83017 8.99955 3.83017C8.7596 3.83017 8.53462 3.72169 8.39832 3.54C8.21984 3.30261 6.60077 1.21741 4.83089 1.21741Z" fill="black"/>
</g>
</svg>
