<svg width="17" height="15" viewBox="0 0 17 15" fill="none" xmlns="http://www.w3.org/2000/svg">
<g opacity="0.8">
<path d="M9.80489 8.25196L9.80443 8.25159L8.9125 7.53257V13.9109C8.9125 14.1392 8.72845 14.3258 8.5 14.3258C8.27155 14.3258 8.0875 14.1392 8.0875 13.9109V7.53257L7.19568 8.2515L9.80489 8.25196ZM9.80489 8.25196C9.88089 8.31249 9.97102 8.3427 10.0625 8.3427C10.1833 8.3427 10.3036 8.28948 10.3849 8.18675C10.5267 8.00821 10.4986 7.74756 10.3205 7.60427L8.76581 6.35097M9.80489 8.25196L8.76581 6.35097M8.76581 6.35097C8.69411 6.29008 8.60143 6.2533 8.5 6.2533C8.39642 6.2533 8.30196 6.29166 8.22965 6.35488L6.67983 7.60426L8.76581 6.35097ZM6.61536 8.18671C6.47368 8.0079 6.50205 7.74732 6.67974 7.60433L6.61536 8.18671ZM6.61536 8.18671C6.75726 8.36586 7.01782 8.39521 7.19557 8.25159L6.61536 8.18671ZM9.9625 11.7066V11.8066H10.0625H13.1875C14.7944 11.8066 16.1 10.4895 16.1 8.8725C16.1 7.39584 15.0118 6.16997 13.5996 5.96762C13.5642 3.17355 11.437 0.9 8.8125 0.9C7.79256 0.9 6.73373 1.20514 5.90207 1.7619C5.09228 2.30401 4.49189 3.08943 4.36327 4.06835C2.42042 4.26452 0.9 5.92104 0.9 7.9278C0.9 10.066 2.62624 11.8066 4.75 11.8066H6.9375H7.0375V11.7066V11.0768V10.9768H6.9375H4.75C3.08282 10.9768 1.725 9.60966 1.725 7.9278C1.725 6.24595 3.08282 4.8788 4.75 4.8788C4.97845 4.8788 5.1625 4.69223 5.1625 4.4639C5.1625 3.65817 5.62264 2.977 6.31565 2.49306C7.00903 2.00885 7.92631 1.7298 8.8125 1.7298C10.9897 1.7298 12.775 3.65475 12.775 6.0384V6.3533C12.775 6.58157 12.9587 6.7682 13.1875 6.7682C14.3375 6.7682 15.275 7.7115 15.275 8.8725C15.275 10.0332 14.3375 10.9768 13.1875 10.9768H10.0625H9.9625V11.0768V11.7066Z" fill="#2D2D2D" stroke="#2D2D2D" stroke-width="0.2"/>
</g>
</svg>
