<svg width="12" height="10" viewBox="0 0 12 10" fill="none" xmlns="http://www.w3.org/2000/svg">
<path d="M7.65131 5.34872C7.13644 4.54552 6.25956 4.06592 5.3056 4.06592C4.35164 4.06592 3.47476 4.54552 2.95999 5.34872L1.71935 7.28414C1.51351 7.60521 1.41853 7.97621 1.44463 8.35673C1.47073 8.73734 1.61556 9.09175 1.86339 9.38192C2.11139 9.67183 2.4391 9.86999 2.81106 9.95501C3.18302 10.04 3.56433 10.0037 3.91368 9.85017L3.93708 9.83978C4.81614 9.4611 5.82064 9.46459 6.69743 9.85017C6.92362 9.9496 7.16324 9.99988 7.40505 9.99988C7.53651 9.99988 7.66877 9.98496 7.7998 9.9551C8.17176 9.87016 8.49947 9.672 8.74756 9.38201C8.99548 9.0921 9.14039 8.7376 9.16657 8.3569C9.19276 7.97621 9.09779 7.60529 8.89194 7.28405L7.65131 5.34872Z" fill="#4C4C4C"/>
<path d="M2.05362 5.34648C2.42271 5.20472 2.7031 4.9073 2.84312 4.50897C2.97642 4.12994 2.96551 3.70201 2.81231 3.30395C2.65902 2.90614 2.3802 2.5814 2.02717 2.38944C1.65634 2.18788 1.24894 2.15505 0.880467 2.29708C0.139158 2.5821 -0.201031 3.49818 0.122222 4.33962C0.380441 5.00935 0.982689 5.43212 1.59157 5.43212C1.74704 5.43212 1.90295 5.40453 2.05362 5.34648Z" fill="#4C4C4C"/>
<path d="M4.46076 3.83007C5.38748 3.83007 6.14145 2.97109 6.14145 1.91525C6.14145 0.859157 5.38748 0 4.46076 0C3.53412 0 2.78024 0.859157 2.78024 1.91525C2.78024 2.97109 3.53412 3.83007 4.46076 3.83007Z" fill="#4C4C4C"/>
<path d="M7.36315 4.30044H7.36324C7.50579 4.34775 7.65122 4.37036 7.79604 4.37036C8.47188 4.37036 9.13052 3.87846 9.38184 3.12248C9.52658 2.68731 9.51706 2.22718 9.35505 1.82694C9.18552 1.40792 8.87134 1.10378 8.47031 0.970484C8.06919 0.837184 7.63542 0.892791 7.24879 1.12692C6.87945 1.35057 6.59644 1.71345 6.45188 2.14862C6.14678 3.06661 6.55558 4.03192 7.36315 4.30044Z" fill="#4C4C4C"/>
<path d="M10.9026 4.07684L10.9023 4.07658C10.2633 3.60449 9.30747 3.80911 8.77157 4.53296C8.23619 5.25716 8.3199 6.23075 8.95803 6.70319C9.19076 6.8756 9.46573 6.95801 9.74717 6.95801C10.2377 6.95801 10.748 6.70764 11.0892 6.24725C11.6244 5.52306 11.5408 4.54946 10.9026 4.07684Z" fill="#4C4C4C"/>
</svg>
