<svg width="53" height="53" viewBox="0 0 53 53" fill="none" xmlns="http://www.w3.org/2000/svg">
<path d="M51.5308 26.22C51.5308 40.4284 40.1035 51.9399 26.0154 51.9399C11.9273 51.9399 0.5 40.4284 0.5 26.22C0.5 12.0115 11.9273 0.5 26.0154 0.5C40.1035 0.5 51.5308 12.0115 51.5308 26.22Z" stroke="#E9E9E9"/>
<path fill-rule="evenodd" clip-rule="evenodd" d="M51.0051 27.3729C50.4073 40.7731 39.4408 51.4399 26.0154 51.4399C12.2071 51.4399 1 40.156 1 26.22C1 16.0963 6.91422 7.3721 15.4435 3.35657L15.0416 2.43994C6.15772 6.6114 0 15.6909 0 26.22C0 40.7009 11.6475 52.4399 26.0154 52.4399C39.9548 52.4399 51.3337 41.3905 51.9999 27.5079L51.0051 27.3729Z" fill="#FFD800"/>
</svg>
