<svg width="10" height="10" viewBox="0 0 10 10" fill="none" xmlns="http://www.w3.org/2000/svg">
<g opacity="0.4">
<path d="M1.28355 -0.00012207H8.71655C9.42245 -0.00012207 10 0.522492 10 1.28331V8.71644C10 9.47726 9.42245 9.99988 8.71655 9.99988H1.28355C0.577448 9.99988 0 9.47726 0 8.71644V1.28331C0 0.522492 0.577448 -0.00012207 1.28355 -0.00012207ZM7.28464 1.11092C7.03698 1.11092 6.83461 1.3134 6.83461 1.56115V2.63872C6.83461 2.88637 7.03698 3.08895 7.28464 3.08895H8.41489C8.66255 3.08895 8.86513 2.88637 8.86513 2.63872V1.56115C8.86513 1.3134 8.66255 1.11092 8.41489 1.11092H7.28464ZM8.86985 4.22884H7.98971C8.07298 4.50073 8.11806 4.78873 8.11806 5.08669C8.11806 6.75002 6.72618 8.09834 5.00955 8.09834C3.29302 8.09834 1.90135 6.75002 1.90135 5.08669C1.90135 4.78852 1.94632 4.50062 2.02969 4.22884H1.11126V8.45298C1.11126 8.67158 1.29012 8.85054 1.50882 8.85054H8.47249C8.69119 8.85054 8.87005 8.67168 8.87005 8.45298V4.22884H8.86985ZM5.00945 3.03217C3.90034 3.03217 3.00111 3.90336 3.00111 4.97816C3.00111 6.05296 3.90034 6.92416 5.00945 6.92416C6.11865 6.92416 7.01799 6.05296 7.01799 4.97816C7.01799 3.90336 6.11876 3.03217 5.00945 3.03217Z" fill="black"/>
</g>
</svg>
