<svg width="11" height="11" viewBox="0 0 11 11" fill="none" xmlns="http://www.w3.org/2000/svg">
<g opacity="0.4">
<path d="M10.6071 2.75013H8.64286V0.392987C8.64286 0.17601 8.46697 0.00012207 8.24999 0.00012207H0.392865C0.175888 0.00012207 0 0.17601 0 0.392987V9.42869C0 10.2966 0.703551 11.0001 1.57144 11.0001H9.42857C10.2964 11.0001 11 10.2966 11 9.42869V3.14297C11 2.92602 10.8241 2.75013 10.6071 2.75013ZM3.14285 1.9644H5.49999C5.71696 1.9644 5.89285 2.14029 5.89285 2.35726C5.89285 2.57424 5.71696 2.75013 5.49999 2.75013H3.14285C2.92587 2.75013 2.74998 2.57424 2.74998 2.35726C2.74998 2.14029 2.92589 1.9644 3.14285 1.9644ZM6.67856 9.42869H1.96428C1.7473 9.42869 1.57141 9.2528 1.57141 9.03582C1.57141 8.81884 1.7473 8.64296 1.96428 8.64296H6.67856C6.89554 8.64296 7.07142 8.81884 7.07142 9.03582C7.07142 9.2528 6.89554 9.42869 6.67856 9.42869ZM6.67856 7.85725H1.96428C1.7473 7.85725 1.57141 7.68136 1.57141 7.46439C1.57141 7.24741 1.7473 7.07152 1.96428 7.07152H6.67856C6.89554 7.07152 7.07142 7.24741 7.07142 7.46439C7.07142 7.68136 6.89554 7.85725 6.67856 7.85725ZM6.67856 6.28584H1.96428C1.7473 6.28584 1.57141 6.10995 1.57141 5.89297C1.57141 5.676 1.7473 5.50011 1.96428 5.50011H6.67856C6.89554 5.50011 7.07142 5.676 7.07142 5.89297C7.07142 6.10995 6.89554 6.28584 6.67856 6.28584ZM6.67856 4.7144H1.96428C1.7473 4.7144 1.57141 4.53852 1.57141 4.32154C1.57141 4.10456 1.7473 3.92868 1.96428 3.92868H6.67856C6.89554 3.92868 7.07142 4.10456 7.07142 4.32154C7.07142 4.53852 6.89554 4.7144 6.67856 4.7144ZM10.2143 9.42869C10.2143 9.86262 9.86249 10.2144 9.42857 10.2144C8.99463 10.2144 8.64286 9.86262 8.64286 9.42869V3.53583H10.2143V9.42869H10.2143Z" fill="black"/>
</g>
</svg>
