<svg width="10" height="10" viewBox="0 0 10 10" fill="none" xmlns="http://www.w3.org/2000/svg">
<g opacity="0.6">
<path d="M7.79689 1.86914C7.71175 1.86914 7.6266 1.90157 7.56183 1.96634C7.49904 2.02913 7.46448 2.11259 7.46448 2.2014C7.46448 2.29021 7.49904 2.37367 7.56183 2.43646C7.69145 2.56609 7.90233 2.56609 8.03195 2.43646C8.09474 2.37367 8.1293 2.29021 8.1293 2.2014C8.1293 2.11259 8.09474 2.02913 8.03195 1.96634C7.96718 1.90157 7.88203 1.86914 7.79689 1.86914Z" fill="#2D2D2D"/>
<path d="M8.722 0H5.43701L0 5.43701L4.56299 10L10 4.56299V1.278L8.722 0ZM2.21237 5.71358L5.08842 2.83752L5.50323 3.25233L2.62718 6.12839L2.21237 5.71358ZM3.04199 6.5432L4.81186 4.77333L5.22667 5.18814L3.4568 6.95801L3.04199 6.5432ZM4.28642 7.78763L3.87161 7.37282L6.19461 5.0499L6.60942 5.46471L4.28642 7.78763ZM8.44841 2.85133C8.26927 3.03055 8.03391 3.12012 7.79854 3.12012C7.56317 3.12012 7.3278 3.03055 7.14867 2.85133C6.9751 2.67776 6.87943 2.44698 6.87943 2.20146C6.87943 1.95602 6.9751 1.72516 7.14867 1.55159C7.50702 1.19331 8.09006 1.19324 8.44841 1.55159C8.62198 1.72516 8.71765 1.95602 8.71765 2.20146C8.71765 2.44698 8.62198 2.67776 8.44841 2.85133Z" fill="#2D2D2D"/>
</g>
</svg>
