<svg width="294" height="121" viewBox="0 0 294 121" fill="none" xmlns="http://www.w3.org/2000/svg">
<mask id="path-1-inside-1" fill="white">
<path fill-rule="evenodd" clip-rule="evenodd" d="M73.2021 9L63.8486 0L54.495 9H8C3.58172 9 0 12.5817 0 17V113C0 117.418 3.58172 121 8 121H286C290.418 121 294 117.418 294 113V17C294 12.5817 290.418 9 286 9H73.2021Z"/>
</mask>
<path d="M63.8486 0L64.5419 -0.720595L63.8486 -1.38774L63.1552 -0.720595L63.8486 0ZM73.2021 9L72.5088 9.7206L72.7992 10H73.2021V9ZM54.495 9V10H54.898L55.1884 9.7206L54.495 9ZM63.1552 0.720595L72.5088 9.7206L73.8955 8.2794L64.5419 -0.720595L63.1552 0.720595ZM55.1884 9.7206L64.5419 0.720595L63.1552 -0.720595L53.8017 8.2794L55.1884 9.7206ZM8 10H54.495V8H8V10ZM1 17C1 13.134 4.13401 10 8 10V8C3.02944 8 -1 12.0294 -1 17H1ZM1 113V17H-1V113H1ZM8 120C4.13401 120 1 116.866 1 113H-1C-1 117.971 3.02944 122 8 122V120ZM286 120H8V122H286V120ZM293 113C293 116.866 289.866 120 286 120V122C290.971 122 295 117.971 295 113H293ZM293 17V113H295V17H293ZM286 10C289.866 10 293 13.134 293 17H295C295 12.0294 290.971 8 286 8V10ZM73.2021 10H286V8H73.2021V10Z" fill="#E9E9E9" mask="url(#path-1-inside-1)"/>
</svg>
