<svg width="14" height="14" viewBox="0 0 14 14" fill="none" xmlns="http://www.w3.org/2000/svg">
<g opacity="0.8">
<path d="M9.15007 8.35926C10.4492 7.56851 11.2964 6.15649 11.2964 4.51853C11.2964 2.03334 9.26302 0 6.77783 0C4.29264 0 2.25927 2.03334 2.25927 4.51853C2.25927 6.15649 3.10648 7.56853 4.40556 8.35926C2.1463 9.2065 0.451838 11.1833 0 13.5556H1.12965C1.69446 10.9574 4.01024 9.03704 6.77783 9.03704C9.54542 9.03704 11.8612 10.9574 12.426 13.5556H13.5557C13.1038 11.1269 11.4094 9.15001 9.15007 8.35926ZM3.38892 4.51853C3.38892 2.65465 4.91394 1.12964 6.77783 1.12964C8.64172 1.12964 10.1667 2.65465 10.1667 4.51853C10.1667 6.38241 8.64172 7.90742 6.77783 7.90742C4.91394 7.90742 3.38892 6.38241 3.38892 4.51853Z" fill="#2D2D2D"/>
</g>
</svg>
