<svg width="32" height="32" viewBox="0 0 32 32" fill="none" xmlns="http://www.w3.org/2000/svg">
<path d="M16 19.2037C17.7652 19.2037 19.2044 17.7672 19.2044 16.0006C19.2044 15.3033 18.9762 14.6594 18.5986 14.1335C18.0166 13.3266 17.0705 12.7975 16.0019 12.7975C14.9327 12.7975 13.9873 13.326 13.404 14.1329C13.025 14.6588 12.7988 15.3026 12.7982 16C12.7962 17.7665 14.2341 19.2037 16 19.2037Z" fill="url(#paint0_linear)"/>
<path d="M22.9927 12.08V8.99544L19.9076 9.00511L19.9179 12.0903L22.9927 12.08Z" fill="url(#paint1_linear)"/>
<path d="M16 0C7.17764 0 0 7.17764 0 16C0 24.8217 7.17764 32 16 32C24.8217 32 32 24.8217 32 16C32 7.17764 24.823 0 16 0ZM25.0995 21.5832C25.0995 23.5237 23.5218 25.1008 21.5825 25.1008H10.4175C8.47756 25.1008 6.90051 23.5237 6.90051 21.5832V10.4181C6.90051 8.47821 8.47756 6.90115 10.4175 6.90115H21.5819C23.5218 6.90115 25.0995 8.47821 25.0995 10.4181V21.5832Z" fill="url(#paint2_linear)"/>
<path d="M20.979 16.0009C20.979 18.7444 18.7465 20.9782 16.0016 20.9782C13.2568 20.9782 11.0249 18.7444 11.0249 16.0009C11.0249 15.3409 11.1564 14.71 11.391 14.1338H8.67448V21.584C8.67448 22.5469 9.45624 23.3267 10.4185 23.3267H21.5829C22.5438 23.3267 23.3269 22.5469 23.3269 21.584V14.1338H20.6091C20.8456 14.71 20.979 15.3409 20.979 16.0009Z" fill="url(#paint3_linear)"/>
<defs>
<linearGradient id="paint0_linear" x1="4" y1="29" x2="29" y2="5" gradientUnits="userSpaceOnUse">
<stop stop-color="#FCCC63"/>
<stop offset="0.20442" stop-color="#FBAD50"/>
<stop offset="0.392265" stop-color="#E95950"/>
<stop offset="0.585635" stop-color="#CD486B"/>
<stop offset="0.756906" stop-color="#BC2A8D"/>
<stop offset="1" stop-color="#8A3AB9"/>
</linearGradient>
<linearGradient id="paint1_linear" x1="4" y1="29" x2="29" y2="5" gradientUnits="userSpaceOnUse">
<stop stop-color="#FCCC63"/>
<stop offset="0.20442" stop-color="#FBAD50"/>
<stop offset="0.392265" stop-color="#E95950"/>
<stop offset="0.585635" stop-color="#CD486B"/>
<stop offset="0.756906" stop-color="#BC2A8D"/>
<stop offset="1" stop-color="#8A3AB9"/>
</linearGradient>
<linearGradient id="paint2_linear" x1="4" y1="29" x2="29" y2="5" gradientUnits="userSpaceOnUse">
<stop stop-color="#FCCC63"/>
<stop offset="0.20442" stop-color="#FBAD50"/>
<stop offset="0.392265" stop-color="#E95950"/>
<stop offset="0.585635" stop-color="#CD486B"/>
<stop offset="0.756906" stop-color="#BC2A8D"/>
<stop offset="1" stop-color="#8A3AB9"/>
</linearGradient>
<linearGradient id="paint3_linear" x1="4" y1="29" x2="29" y2="5" gradientUnits="userSpaceOnUse">
<stop stop-color="#FCCC63"/>
<stop offset="0.20442" stop-color="#FBAD50"/>
<stop offset="0.392265" stop-color="#E95950"/>
<stop offset="0.585635" stop-color="#CD486B"/>
<stop offset="0.756906" stop-color="#BC2A8D"/>
<stop offset="1" stop-color="#8A3AB9"/>
</linearGradient>
</defs>
</svg>
