<svg width="44" height="44" viewBox="0 0 44 44" fill="none" xmlns="http://www.w3.org/2000/svg">
<circle cx="22" cy="22" r="22" fill="#FFEF99"/>
<path d="M21.4975 21.818H21.4475H14.8444C14.5683 21.818 14.35 22.0352 14.35 22.3083C14.35 22.5822 14.5693 22.8063 14.8444 22.8063H21.448H21.498V22.8563V29.4095C21.498 29.6825 21.7242 29.9075 22.0002 29.9075C22.2754 29.9075 22.4946 29.6835 22.4946 29.4095V22.8563V22.8063H22.5447H29.1477C29.4238 22.8063 29.65 22.5813 29.65 22.3083C29.65 22.0361 29.4247 21.818 29.1477 21.818H22.5447H22.4946V21.768V15.2148C22.4946 14.9408 22.2754 14.7167 22.0002 14.7167C21.7242 14.7167 21.498 14.9417 21.4975 15.2148C21.4975 15.2148 21.4975 15.2148 21.4975 15.2149M21.4975 21.818L21.4975 15.2149M21.4975 21.818V21.768L21.4975 15.2149M21.4975 21.818L21.4975 15.2149" fill="black" stroke="black" stroke-width="0.1"/>
</svg>
