<svg width="53" height="20" viewBox="0 0 53 20" fill="none" xmlns="http://www.w3.org/2000/svg">
<g opacity="0.1">
<path d="M49.3419 2.91327C49.3819 4.60135 49.1149 6.31665 48.7278 7.95027C47.9135 11.3128 46.2449 14.5528 43.4684 16.6629C41.426 18.2285 38.9564 19.0453 36.4335 19.3175C36.0063 19.3584 36.0063 20.0391 36.4335 19.9982C40.7719 19.5217 44.6564 17.4525 47.0592 13.6816C48.7145 11.0814 49.5955 8.00472 49.9025 4.94168C49.9693 4.27462 50.0227 3.59395 50.0093 2.91327C49.996 2.47764 49.3285 2.47764 49.3419 2.91327Z" fill="black"/>
<path d="M42.1335 18.2148C42.1335 18.2148 39.9443 15.6282 42.7475 13.6815C42.7475 13.6815 44.9368 16.2817 42.1335 18.2148Z" fill="black"/>
<path d="M44.9769 15.9687C44.9769 15.9687 42.1469 13.4774 44.9235 10.8636C44.9235 10.8636 47.7534 13.3685 44.9769 15.9687Z" fill="black"/>
<path d="M43.2949 17.4797C43.2949 17.4797 45.2973 14.2533 48.234 16.6765C48.234 16.6765 46.2317 19.9029 43.2949 17.4797Z" fill="black"/>
<path d="M46.5921 13.8858C46.5921 13.8858 47.5399 10.7411 50.5167 12.0752C50.5167 12.0752 49.5823 15.2199 46.5921 13.8858Z" fill="black"/>
<path d="M48.2874 10.2509C48.2874 10.2509 49.0349 7.05174 52.0918 8.18166C52.0918 8.18166 51.3443 11.3808 48.2874 10.2509Z" fill="black"/>
<path d="M49.2352 6.9429C49.2352 6.9429 49.1017 2.99498 52.9996 3.32171C52.9996 3.32171 53.1331 7.25601 49.2352 6.9429Z" fill="black"/>
<path d="M47.4997 12.5925C47.4997 12.5925 44.4562 10.8227 46.552 7.90942C46.552 7.90942 49.5955 9.67918 47.4997 12.5925Z" fill="black"/>
<path d="M48.8614 8.53567C48.8614 8.53567 45.6443 7.52827 47.0059 4.34271C47.0059 4.35633 50.223 5.36373 48.8614 8.53567Z" fill="black"/>
<path d="M49.5155 5.1459C49.5155 5.1459 45.7244 3.71649 47.5665 0C47.5665 0 51.3576 1.42942 49.5155 5.1459Z" fill="black"/>
<path d="M3.0041 2.91327C2.95071 4.75109 3.27108 6.65699 3.72494 8.42674C4.61932 11.9118 6.43477 15.179 9.31814 17.33C11.4406 18.9091 13.9903 19.7123 16.5799 19.9982C17.0071 20.0391 17.0071 19.3584 16.5799 19.3175C12.3483 18.8547 8.5973 16.7582 6.34133 13.0281C4.8329 10.5368 4.03197 7.62354 3.76499 4.72387C3.7116 4.12487 3.67155 3.51227 3.6849 2.91327C3.6849 2.47764 3.01745 2.47764 3.0041 2.91327Z" fill="black"/>
<path d="M10.8667 18.2148C10.8667 18.2148 13.0559 15.6282 10.2526 13.6815C10.2526 13.6815 8.0634 16.2817 10.8667 18.2148Z" fill="black"/>
<path d="M8.03662 15.9687C8.03662 15.9687 10.8666 13.4774 8.09002 10.8636C8.07667 10.8636 5.2467 13.3685 8.03662 15.9687Z" fill="black"/>
<path d="M9.71852 17.4797C9.71852 17.4797 7.71618 14.2533 4.77942 16.6765C4.77942 16.6765 6.78176 19.9029 9.71852 17.4797Z" fill="black"/>
<path d="M6.40804 13.8858C6.40804 13.8858 5.46027 10.7411 2.48346 12.0752C2.48346 12.0752 3.43123 15.2199 6.40804 13.8858Z" fill="black"/>
<path d="M4.72606 10.2509C4.72606 10.2509 3.97852 7.05174 0.921622 8.18166C0.908273 8.18166 1.65581 11.3808 4.72606 10.2509Z" fill="black"/>
<path d="M3.76494 6.9429C3.76494 6.9429 3.89843 2.99498 0.000548528 3.32171C0.000548528 3.32171 -0.132941 7.25601 3.76494 6.9429Z" fill="black"/>
<path d="M5.51363 12.5925C5.51363 12.5925 8.55719 10.8227 6.46141 7.90942C6.46141 7.90942 3.41785 9.67918 5.51363 12.5925Z" fill="black"/>
<path d="M4.15199 8.53567C4.15199 8.53567 7.36908 7.52827 6.00749 4.34271C6.00749 4.35633 2.7904 5.36373 4.15199 8.53567Z" fill="black"/>
<path d="M3.48466 5.1459C3.48466 5.1459 7.27576 3.71649 5.43361 0C5.43361 0 1.64251 1.42942 3.48466 5.1459Z" fill="black"/>
</g>
</svg>
