<svg width="10" height="11" viewBox="0 0 10 11" fill="none" xmlns="http://www.w3.org/2000/svg">
<path d="M5.99854 9.30811H3.64014V11H1.79443V9.30811H0.292969V7.82129H1.79443V7.0376H0.292969V5.55078H1.79443V0.335938H5.87402C7.05078 0.335938 7.99072 0.643555 8.69385 1.25879C9.39697 1.86914 9.74854 2.68213 9.74854 3.69775C9.74854 4.73291 9.41406 5.5459 8.74512 6.13672C8.07617 6.72266 7.146 7.02295 5.95459 7.0376H3.64014V7.82129H5.99854V9.30811ZM3.64014 5.55078H5.84473C6.50879 5.55078 7.0166 5.39697 7.36816 5.08936C7.71973 4.78174 7.89551 4.32275 7.89551 3.7124C7.89551 3.16553 7.72217 2.71875 7.37549 2.37207C7.03369 2.02539 6.56006 1.84473 5.95459 1.83008H3.64014V5.55078Z" fill="#506AA1"/>
</svg>
