<svg width="12" height="12" viewBox="0 0 12 12" fill="none" xmlns="http://www.w3.org/2000/svg">
<path d="M11.7024 4.8838L10.6315 4.75517C10.5221 4.34671 10.3618 3.9608 10.1554 3.60274L10.8211 2.75653C10.9229 2.62645 10.9114 2.42534 10.7938 2.30823L9.69024 1.20427C9.57408 1.08764 9.37248 1.07516 9.24192 1.17691L8.39424 1.84361C8.0376 1.63721 7.65168 1.4769 7.24416 1.36843L7.116 0.297588C7.09632 0.133915 6.94512 0 6.78 0H5.21904C5.05392 0 4.90272 0.133915 4.88352 0.297588L4.75488 1.36843C4.34688 1.47738 3.96048 1.63817 3.60384 1.84409L2.75664 1.17835C2.62704 1.0766 2.42544 1.0886 2.3088 1.20523L1.2048 2.30967C1.08864 2.42582 1.07664 2.62741 1.17888 2.75797L1.84416 3.60466C1.63776 3.96176 1.47744 4.34815 1.36848 4.75661L0.29808 4.88476C0.1344 4.90396 0 5.05516 0 5.22075V6.78165C0 6.94676 0.13392 7.097 0.29808 7.11716L1.36896 7.24579C1.4784 7.65281 1.63824 8.03872 1.84464 8.39582L1.17936 9.24347C1.07808 9.37354 1.0896 9.57466 1.20672 9.69177L2.3088 10.7962C2.42544 10.9124 2.62704 10.9253 2.75664 10.8236L3.60432 10.1564C3.96144 10.3628 4.34736 10.5236 4.75536 10.6321L4.884 11.7024C4.90368 11.8666 5.0544 12 5.21952 12H6.78048C6.94608 12 7.0968 11.8666 7.116 11.7024L7.24464 10.6321C7.65312 10.5226 8.03904 10.3623 8.39568 10.1564L9.24336 10.8221C9.37344 10.9239 9.57456 10.9119 9.6912 10.7952L10.7947 9.69081C10.9118 9.57466 10.9238 9.37306 10.8216 9.24203L10.1554 8.39534C10.3622 8.03824 10.5221 7.65233 10.6315 7.24483L11.7019 7.1162C11.8661 7.09652 12 6.94676 12 6.78069V5.21979C12.0005 5.05372 11.867 4.90348 11.7024 4.8838ZM6.00048 8.99964C4.34352 8.99964 3.00048 7.65665 3.00048 5.99976C3.00048 4.34287 4.34352 2.99988 6.00048 2.99988C7.65744 2.99988 9.00048 4.34287 9.00048 5.99976C9.00048 7.65665 7.65792 8.99964 6.00048 8.99964Z" fill="white"/>
</svg>
