<svg width="18" height="13" viewBox="0 0 18 13" fill="none" xmlns="http://www.w3.org/2000/svg">
<mask id="path-1-outside-1" maskUnits="userSpaceOnUse" x="0" y="0" width="18" height="13" fill="black">
<rect fill="white" width="18" height="13"/>
<path fill-rule="evenodd" clip-rule="evenodd" d="M9 1C11.285 1 13.3319 2.46385 14.6454 3.69288C15.5033 4.49251 16.2803 5.39182 16.963 6.37519C16.987 6.41142 17 6.45513 17 6.5C17 6.54487 16.987 6.58858 16.963 6.62481C16.2801 7.60672 15.5031 8.50461 14.6454 9.30288C13.3319 10.534 11.285 12 9 12C6.71498 12 4.66806 10.5362 3.35465 9.30711C2.49669 8.50754 1.71963 7.60822 1.03698 6.62481C1.01295 6.58858 1 6.54487 1 6.5C1 6.45513 1.01295 6.41142 1.03698 6.37519C1.71965 5.3918 2.49671 4.49248 3.35465 3.69288C4.66806 2.46385 6.71498 1 9 1ZM8.99997 8.92306C10.3447 8.92306 11.4347 7.83821 11.4347 6.49998C11.4347 5.16175 10.3447 4.0769 8.99997 4.0769C7.65528 4.0769 6.56519 5.16175 6.56519 6.49998C6.56519 7.83821 7.65528 8.92306 8.99997 8.92306Z"/>
</mask>
<path fill-rule="evenodd" clip-rule="evenodd" d="M9 1C11.285 1 13.3319 2.46385 14.6454 3.69288C15.5033 4.49251 16.2803 5.39182 16.963 6.37519C16.987 6.41142 17 6.45513 17 6.5C17 6.54487 16.987 6.58858 16.963 6.62481C16.2801 7.60672 15.5031 8.50461 14.6454 9.30288C13.3319 10.534 11.285 12 9 12C6.71498 12 4.66806 10.5362 3.35465 9.30711C2.49669 8.50754 1.71963 7.60822 1.03698 6.62481C1.01295 6.58858 1 6.54487 1 6.5C1 6.45513 1.01295 6.41142 1.03698 6.37519C1.71965 5.3918 2.49671 4.49248 3.35465 3.69288C4.66806 2.46385 6.71498 1 9 1ZM8.99997 8.92306C10.3447 8.92306 11.4347 7.83821 11.4347 6.49998C11.4347 5.16175 10.3447 4.0769 8.99997 4.0769C7.65528 4.0769 6.56519 5.16175 6.56519 6.49998C6.56519 7.83821 7.65528 8.92306 8.99997 8.92306Z" fill="white"/>
<path d="M14.6454 3.69288L14.5087 3.83892L14.509 3.83919L14.6454 3.69288ZM16.963 6.37519L17.1297 6.26462L17.1273 6.26114L16.963 6.37519ZM16.963 6.62481L17.1273 6.73903L17.1297 6.73535L16.963 6.62481ZM14.6454 9.30288L14.5091 9.15648L14.5086 9.15697L14.6454 9.30288ZM3.35465 9.30711L3.4913 9.16108L3.491 9.1608L3.35465 9.30711ZM1.03698 6.62481L0.870277 6.73538L0.872685 6.73885L1.03698 6.62481ZM1.03698 6.37519L0.872652 6.26112L0.870314 6.26464L1.03698 6.37519ZM3.35465 3.69288L3.49101 3.83919L3.4913 3.83892L3.35465 3.69288ZM14.782 3.54685C13.4602 2.30998 11.3647 0.8 9 0.8V1.2C11.2053 1.2 13.2037 2.61771 14.5087 3.83892L14.782 3.54685ZM17.1273 6.26114C16.4367 5.26629 15.6503 4.35612 14.7817 3.54658L14.509 3.83919C15.3563 4.62889 16.124 5.51734 16.7987 6.48925L17.1273 6.26114ZM17.2 6.5C17.2 6.41714 17.1762 6.33474 17.1297 6.26465L16.7963 6.48574C16.7979 6.4881 16.8 6.49312 16.8 6.5H17.2ZM17.1297 6.73535C17.1762 6.66526 17.2 6.58286 17.2 6.5H16.8C16.8 6.50688 16.7979 6.5119 16.7963 6.51426L17.1297 6.73535ZM14.7816 9.44929C15.65 8.64111 16.4364 7.73237 17.1272 6.739L16.7988 6.51062C16.1239 7.48107 15.3562 8.36812 14.5091 9.15648L14.7816 9.44929ZM9 12.2C11.3648 12.2 13.4604 10.6878 14.7821 9.4488L14.5086 9.15697C13.2035 10.3803 11.2052 11.8 9 11.8V12.2ZM3.218 9.45315C4.53977 10.69 6.63526 12.2 9 12.2V11.8C6.79469 11.8 4.79634 10.3823 3.4913 9.16108L3.218 9.45315ZM0.872685 6.73885C1.5633 7.73375 2.34968 8.64393 3.21829 9.45343L3.491 9.1608C2.6437 8.37116 1.87596 7.4827 1.20128 6.51076L0.872685 6.73885ZM0.8 6.5C0.8 6.58286 0.823816 6.66526 0.870314 6.73536L1.20365 6.51425C1.20209 6.5119 1.2 6.50688 1.2 6.5H0.8ZM0.870314 6.26464C0.823816 6.33474 0.8 6.41714 0.8 6.5H1.2C1.2 6.49312 1.20209 6.4881 1.20365 6.48575L0.870314 6.26464ZM3.21829 3.54658C2.3497 4.3561 1.56332 5.26627 0.872688 6.26114L1.20127 6.48924C1.87598 5.51732 2.64372 4.62886 3.49101 3.83919L3.21829 3.54658ZM9 0.8C6.63526 0.8 4.53977 2.30998 3.218 3.54685L3.4913 3.83892C4.79634 2.61771 6.79469 1.2 9 1.2V0.8ZM11.2347 6.49998C11.2347 7.72684 10.2351 8.72306 8.99997 8.72306V9.12306C10.4542 9.12306 11.6347 7.94957 11.6347 6.49998H11.2347ZM8.99997 4.2769C10.2351 4.2769 11.2347 5.27312 11.2347 6.49998H11.6347C11.6347 5.05039 10.4542 3.8769 8.99997 3.8769V4.2769ZM6.76519 6.49998C6.76519 5.27312 7.76482 4.2769 8.99997 4.2769V3.8769C7.54573 3.8769 6.36519 5.05039 6.36519 6.49998H6.76519ZM8.99997 8.72306C7.76482 8.72306 6.76519 7.72684 6.76519 6.49998H6.36519C6.36519 7.94957 7.54573 9.12306 8.99997 9.12306V8.72306Z" fill="white" mask="url(#path-1-outside-1)"/>
</svg>
