<svg width="44" height="44" viewBox="0 0 44 44" fill="none" xmlns="http://www.w3.org/2000/svg">
<circle cx="22" cy="22" r="21.5" stroke="#E9E9E9"/>
<path d="M28.6 27.5182L27.6494 16.8043C27.6323 16.5923 27.4544 16.4316 27.239 16.4316H25.2351C25.2316 14.6499 23.7817 13.2 22 13.2C20.2184 13.2 18.7684 14.6499 18.765 16.4316H16.7611C16.549 16.4316 16.3712 16.5923 16.3507 16.8043L15.4 27.5182C15.4 27.5319 15.4 27.5421 15.4 27.5558C15.4 28.7493 16.4977 29.7205 17.8451 29.7205H26.1549C27.5023 29.7205 28.6 28.7493 28.6 27.5558C28.6 27.5421 28.6 27.5319 28.6 27.5182ZM22 14.0207C23.3303 14.0207 24.4109 15.1013 24.4143 16.4316H19.5857C19.5891 15.1013 20.6698 14.0207 22 14.0207ZM26.1549 28.8963H17.8451C16.956 28.8963 16.231 28.3047 16.2207 27.5695L17.1372 17.2523H18.765V18.692C18.765 18.9177 18.9497 19.1023 19.1754 19.1023C19.4011 19.1023 19.5857 18.9177 19.5857 18.692V17.2523H24.4143V18.692C24.4143 18.9177 24.599 19.1023 24.8247 19.1023C25.0504 19.1023 25.2351 18.9177 25.2351 18.692V17.2523H26.8628L27.7793 27.5729C27.769 28.3047 27.0441 28.8963 26.1549 28.8963Z" fill="black"/>
<path d="M24.0484 23.1172H22.4104V21.4792C22.4104 21.2535 22.2257 21.0688 22 21.0688C21.7743 21.0688 21.5897 21.2535 21.5897 21.4792V23.1172H19.9516C19.7259 23.1172 19.5413 23.3019 19.5413 23.5276C19.5413 23.7533 19.7259 23.938 19.9516 23.938H21.5897V25.576C21.5897 25.8017 21.7743 25.9864 22 25.9864C22.2257 25.9864 22.4104 25.8017 22.4104 25.576V23.938H24.0484C24.2741 23.938 24.4588 23.7533 24.4588 23.5276C24.4588 23.3019 24.2741 23.1172 24.0484 23.1172Z" fill="black"/>
</svg>
