<svg width="15" height="15" viewBox="0 0 15 15" fill="none" xmlns="http://www.w3.org/2000/svg">
<g opacity="0.4">
<path d="M6.8521 6.89898H6.8021H0.518109C0.257324 6.89898 0.05 7.10708 0.05 7.37005C0.05 7.63396 0.258249 7.84863 0.518109 7.84863H6.80257H6.85257V7.89863V14.219C6.85257 14.482 7.06735 14.6976 7.32814 14.6976C7.588 14.6976 7.79625 14.4829 7.79625 14.219V7.89863V7.84863H7.84625H14.1302C14.391 7.84863 14.6058 7.63302 14.6058 7.37005C14.6058 7.10801 14.392 6.89898 14.1302 6.89898H7.84625H7.79625V6.84898V0.528576C7.79625 0.264664 7.588 0.05 7.32814 0.05C7.0674 0.05 6.85257 0.265561 6.8521 0.528576C6.8521 0.528603 6.8521 0.52863 6.8521 0.528656M6.8521 6.89898L6.8521 0.528656M6.8521 6.89898V6.84898L6.8521 0.528656M6.8521 6.89898L6.8521 0.528656" fill="black" stroke="white" stroke-width="0.1"/>
</g>
</svg>
