<svg width="44" height="44" viewBox="0 0 44 44" fill="none" xmlns="http://www.w3.org/2000/svg">
<circle cx="22" cy="22" r="21.5" stroke="#E9E9E9"/>
<path d="M24.185 27.1059C24.0569 28.2569 23.1275 29.1501 22 29.1501C20.8726 29.1501 19.9432 28.2569 19.8151 27.1059H16.8261C16.0385 27.1059 15.4 26.435 15.4 25.6067C15.4 24.7796 16.038 24.1076 16.8241 24.1076C16.8946 24.1076 16.953 24.0461 16.953 23.9709V21.8003C16.953 19.469 18.3893 17.4406 20.4471 16.7418V16.4857C20.4471 15.5828 21.1433 14.8501 22 14.8501C22.8582 14.8501 23.553 15.5813 23.553 16.4857V16.7418C25.6107 17.4407 27.0471 19.4695 27.0471 21.8003V23.9709C27.0471 24.0476 27.1041 24.1076 27.176 24.1076C27.9609 24.1076 28.6 24.7794 28.6 25.6067C28.6 26.434 27.961 27.1059 27.1739 27.1059H24.185ZM23.4001 27.1059H20.6C20.7217 27.8037 21.3022 28.3324 22 28.3324C22.6978 28.3324 23.2784 27.8037 23.4001 27.1059ZM20.932 17.4448C19.0608 17.9518 17.7294 19.7357 17.7294 21.8003V23.9709C17.7294 24.4976 17.3235 24.9253 16.8241 24.9253C16.4669 24.9253 16.1765 25.2312 16.1765 25.6067C16.1765 25.983 16.4669 26.2882 16.8261 26.2882H27.1739C27.5325 26.2882 27.8236 25.9821 27.8236 25.6067C27.8236 25.2314 27.5324 24.9253 27.176 24.9253C26.6754 24.9253 26.2706 24.4993 26.2706 23.9709V21.8003C26.2706 19.7362 24.9392 17.9518 23.068 17.4448L22.7765 17.3658V16.4857C22.7765 16.033 22.4294 15.6678 22 15.6678C21.572 15.6678 21.2236 16.0345 21.2236 16.4857V17.3658L20.932 17.4448Z" fill="black"/>
</svg>
