<svg width="21" height="23" viewBox="0 0 21 23" fill="none" xmlns="http://www.w3.org/2000/svg">
<path d="M20.9939 0.997014C20.9881 0.888456 20.9563 0.782787 20.9008 0.688692C20.8454 0.594598 20.7681 0.514764 20.6751 0.455754C20.5822 0.396744 20.4763 0.360243 20.3662 0.349251C20.2561 0.338259 20.1449 0.353091 20.0418 0.392526L18.3034 1.0608C18.2964 0.832154 18.2894 0.688882 18.2864 0.647667C18.2762 0.472373 18.198 0.307575 18.068 0.187124C17.9379 0.0666729 17.7658 -0.000285966 17.5871 9.18062e-07H3.41441C3.23565 -0.000285966 3.06357 0.0666729 2.93351 0.187124C2.80345 0.307575 2.72528 0.472373 2.71507 0.647667C2.71507 0.688882 2.70508 0.832154 2.69808 1.0608L0.959719 0.392526C0.856535 0.352895 0.745243 0.337911 0.635008 0.348808C0.524774 0.359704 0.418753 0.39617 0.325678 0.455201C0.232604 0.514231 0.15514 0.594138 0.0996675 0.688338C0.044195 0.782537 0.0123015 0.888335 0.00661454 0.997014C-0.0278924 2.12728 0.072701 3.25763 0.306333 4.36488C0.83084 6.80933 1.97476 8.5541 3.61522 9.4098C3.64427 9.42455 3.67431 9.43734 3.70514 9.44807C4.20467 11.0407 4.93298 12.5471 6.00298 13.6677C7.04999 14.755 8.3218 15.3781 9.79142 15.5263V18.8628H6.47354C6.28806 18.8628 6.11018 18.9352 5.97902 19.064C5.84787 19.1928 5.77419 19.3675 5.77419 19.5497C5.77419 19.7319 5.84787 19.9066 5.97902 20.0354C6.11018 20.1642 6.28806 20.2366 6.47354 20.2366H14.528C14.7134 20.2366 14.8913 20.1642 15.0225 20.0354C15.1536 19.9066 15.2273 19.7319 15.2273 19.5497C15.2273 19.3675 15.1536 19.1928 15.0225 19.064C14.8913 18.9352 14.7134 18.8628 14.528 18.8628H11.2001V15.5263C12.6697 15.3781 13.9415 14.755 14.9885 13.6677C16.0635 12.549 16.7948 11.0427 17.2914 9.44807C17.3222 9.43734 17.3522 9.42455 17.3813 9.4098C19.0217 8.5541 20.1657 6.80933 20.6902 4.36488C20.9251 3.25778 21.0271 2.12744 20.9939 0.997014ZM1.41729 2.04309L2.69509 2.53375C2.72556 4.14864 2.88995 5.75842 3.18662 7.34708C1.81591 5.84175 1.48922 3.39534 1.41729 2.04309ZM13.9705 12.7266C13.0224 13.7079 11.8874 14.1908 10.5007 14.1908C9.11405 14.1908 7.97912 13.7079 7.03101 12.7266C4.21566 9.80233 4.0648 3.42674 4.09377 1.37776H16.9077C16.9367 3.4238 16.7858 9.7984 13.9705 12.7266ZM19.3215 4.08618C18.9828 5.6661 18.4113 6.6847 17.8169 7.34218C18.1122 5.75502 18.276 4.14693 18.3064 2.53375L19.5852 2.04309C19.5507 2.72846 19.4625 3.41019 19.3215 4.08226V4.08618Z" fill="#D4D4D4"/>
<path d="M13.9705 12.7266C13.0224 13.7079 11.8874 14.1908 10.5007 14.1908C9.11405 14.1908 7.97912 13.7079 7.03101 12.7266C4.21566 9.80233 4.0648 3.42674 4.09377 1.37776H16.9077C16.9367 3.4238 16.7858 9.7984 13.9705 12.7266Z" fill="#D4D4D4"/>
<path d="M16.9047 21.6262H4.09677C3.91129 21.6262 3.73341 21.6986 3.60226 21.8274C3.4711 21.9562 3.39742 22.131 3.39742 22.3131C3.39742 22.4953 3.4711 22.67 3.60226 22.7989C3.73341 22.9277 3.91129 23.0001 4.09677 23.0001H16.9047C17.0902 23.0001 17.2681 22.9277 17.3992 22.7989C17.5304 22.67 17.6041 22.4953 17.6041 22.3131C17.6041 22.131 17.5304 21.9562 17.3992 21.8274C17.2681 21.6986 17.0902 21.6262 16.9047 21.6262Z" fill="#D4D4D4"/>
<path d="M10.1582 3.21289C10.4824 3.21289 10.7832 3.26172 11.0605 3.35938C11.3379 3.45703 11.5781 3.59766 11.7812 3.78125C11.9844 3.96484 12.1426 4.18945 12.2559 4.45508C12.373 4.7207 12.4316 5.02344 12.4316 5.36328C12.4316 5.64844 12.3887 5.91406 12.3027 6.16016C12.2207 6.40234 12.1074 6.63477 11.9629 6.85742C11.8223 7.08008 11.6582 7.29883 11.4707 7.51367C11.2832 7.72461 11.0859 7.9375 10.8789 8.15234L8.9043 10.209C9.05273 10.166 9.20117 10.1328 9.34961 10.1094C9.50195 10.0859 9.64648 10.0742 9.7832 10.0742H12.2266C12.332 10.0742 12.416 10.1055 12.4785 10.168C12.541 10.2266 12.5723 10.3066 12.5723 10.4082V11H7.53906V10.666C7.53906 10.5996 7.55273 10.5293 7.58008 10.4551C7.60742 10.377 7.6543 10.3066 7.7207 10.2441L10.1055 7.7832C10.3086 7.57617 10.4902 7.37695 10.6504 7.18555C10.8145 6.99414 10.9531 6.80273 11.0664 6.61133C11.1797 6.41602 11.2676 6.21875 11.3301 6.01953C11.3926 5.82031 11.4238 5.60938 11.4238 5.38672C11.4238 5.16406 11.3887 4.96875 11.3184 4.80078C11.252 4.63281 11.1602 4.49414 11.043 4.38477C10.9258 4.27148 10.7871 4.1875 10.627 4.13281C10.4668 4.07812 10.293 4.05078 10.1055 4.05078C9.92188 4.05078 9.75195 4.08008 9.5957 4.13867C9.43945 4.19336 9.30078 4.27148 9.17969 4.37305C9.05859 4.4707 8.95508 4.58984 8.86914 4.73047C8.7832 4.86719 8.7207 5.01758 8.68164 5.18164C8.65039 5.31445 8.5957 5.40234 8.51758 5.44531C8.44336 5.48438 8.33789 5.49414 8.20117 5.47461L7.69141 5.39258C7.73828 5.03711 7.83203 4.72461 7.97266 4.45508C8.11719 4.18164 8.29688 3.95312 8.51172 3.76953C8.72656 3.58594 8.97266 3.44727 9.25 3.35352C9.53125 3.25977 9.83398 3.21289 10.1582 3.21289Z" fill="black"/>
</svg>
