<svg width="30" height="30" viewBox="0 0 30 30" fill="none" xmlns="http://www.w3.org/2000/svg">
<g opacity="0.4">
<path d="M14.2849 14.3828H14.3349V14.3328V1.79609C14.3358 1.2475 14.7837 0.797559 15.3284 0.797559C15.8721 0.797559 16.306 1.24656 16.306 1.79601V14.3328V14.3828H16.356H28.8206C29.3662 14.3828 29.8131 14.8187 29.8131 15.3663C29.8131 15.9148 29.3653 16.3648 28.8206 16.3648H16.356H16.306V16.4148V28.9515C16.306 29.501 15.8721 29.95 15.3284 29.95C14.7837 29.95 14.3359 29.5 14.3359 28.9515V16.4148V16.3648H14.2859H1.82041C1.27664 16.3648 0.842725 15.9158 0.842725 15.3663C0.842725 14.8178 1.27571 14.3828 1.82041 14.3828H14.2849Z" fill="black" stroke="white" stroke-width="0.1"/>
</g>
</svg>
