<svg width="75" height="34" viewBox="0 0 75 34" fill="none" xmlns="http://www.w3.org/2000/svg">
<g opacity="0.1">
<path d="M68.7004 4.95265C68.7693 7.82237 68.3096 10.7384 67.6429 13.5155C66.2407 19.2319 63.3671 24.7399 58.5856 28.327C55.0684 30.9885 50.8156 32.3771 46.4709 32.8399C45.7353 32.9093 45.7353 34.0665 46.4709 33.9971C53.942 33.1871 60.6316 29.6693 64.7694 23.2587C67.6199 18.8384 69.1372 13.6081 69.6659 8.40095C69.7808 7.26694 69.8728 6.1098 69.8498 4.95265C69.8268 4.21207 68.6774 4.21207 68.7004 4.95265Z" fill="black"/>
<path d="M56.2868 30.9654C56.2868 30.9654 52.5168 26.5682 57.3443 23.2588C57.3443 23.2588 61.1143 27.6791 56.2868 30.9654Z" fill="black"/>
<path d="M61.1832 27.1466C61.1832 27.1466 56.3097 22.9115 61.0912 18.468C61.0912 18.468 65.9647 22.7263 61.1832 27.1466Z" fill="black"/>
<path d="M58.2867 29.7154C58.2867 29.7154 61.7349 24.2305 66.7923 28.35C66.7923 28.35 63.3441 33.8348 58.2867 29.7154Z" fill="black"/>
<path d="M63.9647 23.6058C63.9647 23.6058 65.5969 18.2598 70.7232 20.5278C70.7232 20.5278 69.114 25.8738 63.9647 23.6058Z" fill="black"/>
<path d="M66.8843 17.4265C66.8843 17.4265 68.1716 11.9879 73.4359 13.9087C73.4359 13.9087 72.1485 19.3473 66.8843 17.4265Z" fill="black"/>
<path d="M68.5165 11.803C68.5165 11.803 68.2866 5.09149 74.9991 5.64692C74.9991 5.64692 75.229 12.3352 68.5165 11.803Z" fill="black"/>
<path d="M65.5279 21.4072C65.5279 21.4072 60.2866 18.3986 63.8958 13.446C63.8958 13.446 69.1371 16.4546 65.5279 21.4072Z" fill="black"/>
<path d="M67.8728 14.5107C67.8728 14.5107 62.3327 12.7981 64.6775 7.38269C64.6775 7.40583 70.2176 9.11841 67.8728 14.5107Z" fill="black"/>
<path d="M68.9991 8.74804C68.9991 8.74804 62.4705 6.31803 65.6428 0C65.6428 0 72.1715 2.43001 68.9991 8.74804Z" fill="black"/>
<path d="M5.17322 4.95265C5.08127 8.07695 5.63299 11.317 6.41458 14.3255C7.95479 20.2501 11.0812 25.8045 16.0466 29.461C19.7017 32.1456 24.0924 33.5111 28.5521 33.9971C29.2877 34.0665 29.2877 32.9093 28.5521 32.8399C21.2649 32.053 14.8052 28.489 10.9203 22.1479C8.32259 17.9127 6.94331 12.9601 6.48355 8.03066C6.39159 7.01237 6.32263 5.97094 6.34562 4.95265C6.34562 4.21207 5.19621 4.21207 5.17322 4.95265Z" fill="black"/>
<path d="M18.7133 30.9654C18.7133 30.9654 22.4833 26.5682 17.6558 23.2588C17.6558 23.2588 13.8858 27.6791 18.7133 30.9654Z" fill="black"/>
<path d="M13.8398 27.1466C13.8398 27.1466 18.7133 22.9115 13.9317 18.468C13.9088 18.468 9.03528 22.7263 13.8398 27.1466Z" fill="black"/>
<path d="M16.7364 29.7154C16.7364 29.7154 13.2881 24.2305 8.23077 28.35C8.23077 28.35 11.679 33.8348 16.7364 29.7154Z" fill="black"/>
<path d="M11.0353 23.6058C11.0353 23.6058 9.4031 18.2598 4.27676 20.5278C4.27676 20.5278 5.90891 25.8738 11.0353 23.6058Z" fill="black"/>
<path d="M8.13871 17.4265C8.13871 17.4265 6.85137 11.9879 1.5871 13.9087C1.56411 13.9087 2.85144 19.3473 8.13871 17.4265Z" fill="black"/>
<path d="M6.48359 11.803C6.48359 11.803 6.71347 5.09149 0.000944618 5.64692C0.000944618 5.64692 -0.228937 12.3352 6.48359 11.803Z" fill="black"/>
<path d="M9.49503 21.4072C9.49503 21.4072 14.7363 18.3986 11.1272 13.446C11.1272 13.446 5.88589 16.4546 9.49503 21.4072Z" fill="black"/>
<path d="M7.15024 14.5107C7.15024 14.5107 12.6904 12.7981 10.3456 7.38269C10.3456 7.40583 4.80546 9.11841 7.15024 14.5107Z" fill="black"/>
<path d="M6.00093 8.74804C6.00093 8.74804 12.5296 6.31803 9.3572 0C9.3572 0 2.82857 2.43001 6.00093 8.74804Z" fill="black"/>
</g>
</svg>
