<svg width="14" height="13" viewBox="0 0 14 13" fill="none" xmlns="http://www.w3.org/2000/svg">
<g opacity="0.4">
<path d="M9.48261 3.39623L6.99918 5.87966L4.51455 3.39503C4.34758 3.22806 4.08059 3.22792 3.9136 3.39491C3.74826 3.56025 3.74206 3.83031 3.91066 3.99891L6.39548 6.48373L3.91205 8.96716C3.74506 9.13416 3.7452 9.40725 3.91217 9.57422C4.08078 9.74282 4.35083 9.73662 4.51617 9.57128L6.9996 7.08785L9.48423 9.57248C9.6512 9.73945 9.92429 9.73959 10.0913 9.5726C10.2599 9.40397 10.2534 9.13391 10.0881 8.96859L7.60349 6.48397L10.0869 4.00054C10.2523 3.8352 10.2585 3.56514 10.0899 3.39654C9.92286 3.22954 9.64987 3.2295 9.48275 3.39609L9.48261 3.39623Z" fill="#506AA1" stroke="#506AA1" stroke-width="0.25"/>
</g>
</svg>
