<svg width="47" height="48" viewBox="0 0 47 48" fill="none" xmlns="http://www.w3.org/2000/svg">
<path d="M0 0H47V48H8C3.58172 48 0 44.4183 0 40V0Z" fill="#FFEF99"/>
<path d="M23.4778 34.286C28.3631 34.286 30.2271 30.0769 30.2271 25.5319V22.5225C31.5536 21.241 31.9417 19.4061 31.3472 17.1939C30.9275 15.6323 30.222 14.4354 29.4972 13.237C29.4244 13.0794 29.2834 12.9534 29.104 12.8939C28.8584 12.8125 28.5842 12.8699 28.4 13.0414C28.0838 13.4303 25.8383 14.8467 25.5337 17.9635H21.4665C21.1618 14.8464 18.9243 13.4401 18.6002 13.0414C18.4158 12.8699 18.1418 12.8125 17.8963 12.8939C17.7166 12.9534 17.5758 13.0794 17.5029 13.237C16.7468 14.4874 16.0731 15.6305 15.653 17.1939C15.0651 19.3814 15.4375 21.2003 16.7285 22.4798V25.5319C16.7285 30.0821 18.5958 34.286 23.4778 34.286ZM23.4778 33.0304C19.4208 33.0304 18.0783 29.3073 18.0783 25.5319V22.5403L21.1335 19.219H25.8668L28.1766 21.7302H26.1775C24.3167 21.7302 22.8029 23.1383 22.8029 24.8691C22.8029 26.6 24.3167 28.0038 26.1775 28.0038H28.661C28.1294 30.8346 26.6044 33.0304 23.4778 33.0304ZM28.828 26.7525H26.1775C25.0611 26.7525 24.1527 25.9076 24.1527 24.8691C24.1527 23.8307 25.0611 22.9858 26.1775 22.9858H28.8772V25.5319C28.8772 25.9518 28.8605 26.359 28.828 26.7525ZM28.5639 14.6646L28.7263 14.5136C29.1256 15.1915 29.7158 16.3011 30.0376 17.4985C30.4646 19.0871 30.3055 20.3652 29.5655 21.3087L26.8575 18.3648C26.9198 16.9789 27.5476 15.6099 28.5639 14.6646ZM16.9624 17.4985C17.2842 16.3011 17.8745 15.1915 18.274 14.5136C18.3234 14.5811 20.0313 15.8813 20.1427 18.3648L17.4347 21.3087C16.6947 20.3652 16.5355 19.0871 16.9624 17.4985Z" fill="#B18A00"/>
<path d="M24.0394 32.7506L25.3401 30.9359C26.2363 29.6855 25.2703 28.0078 23.6554 28.0078H23.3004C21.6847 28.0078 20.7198 29.686 21.6157 30.9359L22.9163 32.7506C23.0415 32.9252 23.2522 33.0301 23.4779 33.0301C23.7036 33.0301 23.9143 32.9252 24.0394 32.7506ZM22.7388 30.2394C22.4396 29.822 22.7604 29.2634 23.3004 29.2634H23.6554C24.1948 29.2634 24.5165 29.8214 24.217 30.2394L23.4779 31.2705L22.7388 30.2394Z" fill="#B18A00"/>
<path d="M26.8526 24.8685C26.8526 25.2153 26.5504 25.4963 26.1776 25.4963C25.8048 25.4963 25.5027 25.2153 25.5027 24.8685C25.5027 24.5218 25.8048 24.2407 26.1776 24.2407C26.5504 24.2407 26.8526 24.5218 26.8526 24.8685Z" fill="#B18A00"/>
<path d="M21.4529 24.8685C21.4529 25.2153 21.1508 25.4963 20.778 25.4963C20.4052 25.4963 20.103 25.2153 20.103 24.8685C20.103 24.5218 20.4052 24.2407 20.778 24.2407C21.1508 24.2407 21.4529 24.5218 21.4529 24.8685Z" fill="#B18A00"/>
</svg>
