<svg width="9" height="10" viewBox="0 0 9 10" fill="none" xmlns="http://www.w3.org/2000/svg">
<path d="M5.19873 8.53369H3.15479V10H1.55518V8.53369H0.253906V7.24512H1.55518V6.56592H0.253906V5.27734H1.55518V0.757812H5.09082C6.11068 0.757812 6.92529 1.02441 7.53467 1.55762C8.14404 2.08659 8.44873 2.79118 8.44873 3.67139C8.44873 4.56852 8.15885 5.27311 7.5791 5.78516C6.99935 6.29297 6.1932 6.55322 5.16064 6.56592H3.15479V7.24512H5.19873V8.53369ZM3.15479 5.27734H5.06543C5.64095 5.27734 6.08105 5.14404 6.38574 4.87744C6.69043 4.61084 6.84277 4.21305 6.84277 3.68408C6.84277 3.21012 6.69255 2.82292 6.39209 2.52246C6.09587 2.22201 5.68538 2.06543 5.16064 2.05273H3.15479V5.27734Z" fill="white"/>
</svg>
