<svg width="40" height="40" viewBox="0 0 40 40" fill="none" xmlns="http://www.w3.org/2000/svg">
<circle cx="20" cy="20" r="20" fill="#F3F3F3"/>
<g opacity="0.9">
<path d="M22.7223 20.7037C24.213 19.7962 25.1853 18.1759 25.1853 16.2963C25.1853 13.4444 22.8519 11.1111 20.0001 11.1111C17.1482 11.1111 14.8148 13.4444 14.8148 16.2963C14.8148 18.1759 15.787 19.7963 17.2778 20.7037C14.6852 21.6759 12.7407 23.9444 12.2222 26.6666H13.5185C14.1667 23.6852 16.8241 21.4814 20.0001 21.4814C23.176 21.4814 25.8334 23.6851 26.4816 26.6666H27.7779C27.2594 23.8796 25.3149 21.6111 22.7223 20.7037ZM16.1111 16.2963C16.1111 14.1574 17.8612 12.4074 20.0001 12.4074C22.1389 12.4074 23.889 14.1574 23.889 16.2963C23.889 18.4352 22.1389 20.1852 20.0001 20.1852C17.8612 20.1852 16.1111 18.4352 16.1111 16.2963Z" fill="black"/>
</g>
</svg>
