<svg width="11" height="11" viewBox="0 0 11 11" fill="none" xmlns="http://www.w3.org/2000/svg">
<path d="M8.57842 2.05615C8.48476 2.05615 8.39111 2.09182 8.31985 2.16307C8.25079 2.23214 8.21277 2.32395 8.21277 2.42164C8.21277 2.51933 8.25079 2.61114 8.31985 2.68021C8.46244 2.82279 8.6944 2.82279 8.83699 2.68021C8.90606 2.61114 8.94408 2.51933 8.94408 2.42164C8.94408 2.32395 8.90606 2.23214 8.83699 2.16307C8.76574 2.09182 8.67208 2.05615 8.57842 2.05615Z" fill="#4C4C4C"/>
<path d="M9.5942 0H5.98071L0 5.98071L5.01929 11L11 5.01929V1.4058L9.5942 0ZM2.43361 6.28493L5.59727 3.12128L6.05356 3.57757L2.8899 6.74123L2.43361 6.28493ZM3.34619 7.19752L5.29305 5.25066L5.74934 5.70695L3.80248 7.65381L3.34619 7.19752ZM4.71507 8.56639L4.25877 8.1101L6.81407 5.55489L7.27036 6.01118L4.71507 8.56639ZM9.29325 3.13647C9.0962 3.3336 8.8373 3.43213 8.57839 3.43213C8.31949 3.43213 8.06059 3.3336 7.86353 3.13647C7.67261 2.94554 7.56737 2.69167 7.56737 2.42161C7.56737 2.15163 7.67261 1.89767 7.86353 1.70675C8.25772 1.31264 8.89906 1.31256 9.29325 1.70675C9.48418 1.89767 9.58942 2.15163 9.58942 2.42161C9.58942 2.69167 9.48418 2.94554 9.29325 3.13647Z" fill="#4C4C4C"/>
</svg>
