<svg width="14" height="15" viewBox="0 0 14 15" fill="none" xmlns="http://www.w3.org/2000/svg">
<path d="M7.83398 12.1802H4.39893V15H2.44043V12.1802H0.317871V10.5601H2.44043V9.15527H0.317871V7.54541H2.44043V0.0703125H7.94678C9.54639 0.0703125 10.8145 0.477051 11.751 1.29053C12.6875 2.104 13.1558 3.20459 13.1558 4.59229C13.1558 6.04834 12.7046 7.17285 11.8022 7.96582C10.9067 8.75195 9.63184 9.14844 7.97754 9.15527H4.39893V10.5601H7.83398V12.1802ZM4.39893 7.54541H7.94678C9.00635 7.54541 9.81299 7.2959 10.3667 6.79688C10.9204 6.29785 11.1973 5.56982 11.1973 4.61279C11.1973 3.74463 10.9102 3.04395 10.3359 2.51074C9.76172 1.9707 8.98584 1.69727 8.0083 1.69043H4.39893V7.54541Z" fill="black"/>
</svg>
