<svg width="20" height="15" viewBox="0 0 20 15" fill="none" xmlns="http://www.w3.org/2000/svg">
<path opacity="0.4" d="M11 14C11 14.1958 11.1142 14.3735 11.2923 14.4548C11.4704 14.5361 11.6795 14.5061 11.8275 14.3778L19.3275 7.87784C19.437 7.78287 19.5 7.64501 19.5 7.5C19.5 7.35499 19.437 7.21713 19.3275 7.12216L11.8275 0.622155C11.6795 0.493946 11.4704 0.463861 11.2923 0.545174C11.1142 0.626487 11 0.80424 11 1L11 4.24793C8.91414 4.27774 6.42585 4.51558 4.39365 5.56791C3.2847 6.14215 2.3034 6.96284 1.60241 8.12664C0.901754 9.28987 0.5 10.7645 0.499999 12.6174C0.499999 12.8085 0.608875 12.9829 0.780546 13.0667C0.952215 13.1506 1.15666 13.1293 1.30736 13.0118C4.80645 10.2848 8.60028 10.3358 10.878 10.3664C10.9192 10.367 10.9598 10.3675 11 10.3681L11 14Z" stroke="black" stroke-linecap="round" stroke-linejoin="round"/>
</svg>
