<svg width="16" height="16" viewBox="0 0 16 16" fill="none" xmlns="http://www.w3.org/2000/svg">
<path d="M13.8344 0.0009375C13.8282 0.0006875 13.822 0 13.8157 0H4.21149C3.39924 0 2.73839 0.660812 2.73839 1.47309V13.177H1.19849C0.939611 13.177 0.729736 13.3868 0.729736 13.6457V14.5269C0.729736 15.3267 1.37052 15.9792 2.16555 15.9991C2.1718 15.9993 2.17796 16 2.18427 16H11.7885C12.6007 16 13.2616 15.3392 13.2616 14.5269V2.82303H14.8015C15.0604 2.82303 15.2702 2.61316 15.2702 2.35428V1.47309C15.2702 0.673312 14.6295 0.0208437 13.8344 0.0009375ZM2.2028 15.0625C1.90749 15.0625 1.66721 14.8223 1.66721 14.5269V14.1145H1.66724H10.3081V14.5269C10.3081 14.7158 10.3442 14.8964 10.4093 15.0625H2.2028ZM12.3241 14.5269C12.3241 14.8222 12.0838 15.0625 11.7885 15.0625H11.7811C11.4858 15.0625 11.2455 14.8222 11.2455 14.5269V13.6457C11.2455 13.3868 11.0357 13.1769 10.7768 13.1769H3.67586V1.47309C3.67586 1.17778 3.91611 0.9375 4.21145 0.9375H12.4253C12.3602 1.10363 12.3241 1.28416 12.3241 1.47309V14.5269ZM14.3328 1.88553H14.3327H13.2616V1.47309C13.2616 1.17778 13.5018 0.9375 13.7972 0.9375C14.0925 0.9375 14.3328 1.17775 14.3328 1.47309V1.88553Z" fill="#4C4C4C"/>
<path d="M10.7769 3.05957H4.99146C4.73258 3.05957 4.52271 3.26945 4.52271 3.52832C4.52271 3.7872 4.73258 3.99707 4.99146 3.99707H10.7769C11.0358 3.99707 11.2457 3.7872 11.2457 3.52832C11.2457 3.26945 11.0358 3.05957 10.7769 3.05957Z" fill="#4C4C4C"/>
<path d="M10.7769 5.41553H4.99146C4.73258 5.41553 4.52271 5.6254 4.52271 5.88428C4.52271 6.14315 4.73258 6.35303 4.99146 6.35303H10.7769C11.0358 6.35303 11.2457 6.14315 11.2457 5.88428C11.2457 5.6254 11.0358 5.41553 10.7769 5.41553Z" fill="#4C4C4C"/>
<path d="M10.7769 7.77148H4.99146C4.73258 7.77148 4.52271 7.98136 4.52271 8.24023C4.52271 8.49911 4.73258 8.70898 4.99146 8.70898H10.7769C11.0358 8.70898 11.2457 8.49911 11.2457 8.24023C11.2457 7.98136 11.0358 7.77148 10.7769 7.77148Z" fill="#4C4C4C"/>
<path d="M10.7769 10.1279H4.99146C4.73258 10.1279 4.52271 10.3378 4.52271 10.5967C4.52271 10.8556 4.73258 11.0654 4.99146 11.0654H10.7769C11.0358 11.0654 11.2457 10.8556 11.2457 10.5967C11.2457 10.3378 11.0358 10.1279 10.7769 10.1279Z" fill="#4C4C4C"/>
</svg>
