<svg width="16" height="16" viewBox="0 0 16 16" fill="none" xmlns="http://www.w3.org/2000/svg">
<path d="M10.2271 9.82878C9.61142 10.3688 8.82073 10.6665 8.0001 10.6665C7.17913 10.6665 6.38942 10.3701 5.77646 9.83219L5.27549 9.39258L4.39577 10.3945L4.89674 10.8341C5.75303 11.5858 6.85508 11.9998 8.0001 11.9998C9.14479 11.9998 10.2478 11.5845 11.1064 10.8309L11.6074 10.3911L10.7278 9.38916L10.2271 9.82878Z" fill="#40CB3D"/>
<path d="M8 0C3.5887 0 0 3.5887 0 8C0 12.4113 3.5887 16 8 16C12.4113 16 16 12.4113 16 8C16 3.5887 12.4113 0 8 0ZM8 14.6667C4.32406 14.6667 1.33333 11.6759 1.33333 8C1.33333 4.32406 4.32406 1.33333 8 1.33333C11.6759 1.33333 14.6667 4.32406 14.6667 8C14.6667 11.6759 11.6759 14.6667 8 14.6667Z" fill="#40CB3D"/>
<path d="M4.6665 6H5.99984V7.33333H4.6665V6Z" fill="#40CB3D"/>
<path d="M10 6H11.3333V7.33333H10V6Z" fill="#40CB3D"/>
</svg>
