<svg width="11" height="11" viewBox="0 0 11 11" fill="none" xmlns="http://www.w3.org/2000/svg">
<g opacity="0.44">
<path d="M7.35591 5.82969C6.86093 5.05751 6.01792 4.59644 5.1008 4.59644C4.18369 4.59644 3.34068 5.05751 2.84578 5.82969L1.65306 7.69035C1.45517 7.99902 1.36386 8.3557 1.38896 8.72152C1.41405 9.08743 1.55328 9.42815 1.79154 9.70712C2.02996 9.98582 2.34501 10.1763 2.70261 10.2581C3.06021 10.3398 3.42678 10.3049 3.76265 10.1573L3.78514 10.1473C4.63024 9.78323 5.59595 9.78659 6.43888 10.1573C6.65632 10.2529 6.88669 10.3012 7.11916 10.3012C7.24555 10.3012 7.37269 10.2869 7.49866 10.2582C7.85626 10.1765 8.17131 9.98599 8.40982 9.7072C8.64816 9.42849 8.78747 9.08768 8.81265 8.72169C8.83783 8.3557 8.74652 7.99911 8.54863 7.69027L7.35591 5.82969Z" fill="black"/>
<path d="M1.97431 5.82733C2.32913 5.69104 2.5987 5.40512 2.73331 5.02217C2.86146 4.65778 2.85097 4.24638 2.70368 3.86369C2.55631 3.48125 2.28826 3.16905 1.94888 2.98451C1.59237 2.79073 1.2007 2.75917 0.84646 2.89572C0.133783 3.16973 -0.193266 4.05042 0.117502 4.85936C0.365747 5.50322 0.944734 5.90966 1.5301 5.90966C1.67957 5.90966 1.82945 5.88314 1.97431 5.82733Z" fill="black"/>
<path d="M4.28858 4.36964C5.17951 4.36964 5.90436 3.54383 5.90436 2.52878C5.90436 1.51347 5.17951 0.6875 4.28858 0.6875C3.39774 0.6875 2.67297 1.51347 2.67297 2.52878C2.67297 3.54383 3.39774 4.36964 4.28858 4.36964Z" fill="black"/>
<path d="M7.07899 4.82197H7.07907C7.21612 4.86746 7.35594 4.8892 7.49517 4.8892C8.1449 4.8892 8.7781 4.41629 9.01972 3.68951C9.15886 3.27115 9.14971 2.82879 8.99395 2.44401C8.83097 2.04117 8.52893 1.74879 8.14339 1.62063C7.75776 1.49248 7.34075 1.54594 6.96905 1.77103C6.61397 1.98604 6.34189 2.33491 6.20291 2.75326C5.9096 3.6358 6.30261 4.56383 7.07899 4.82197Z" fill="black"/>
<path d="M10.4814 4.60687L10.4811 4.60662C9.86674 4.15277 8.94786 4.34948 8.43266 5.04537C7.91796 5.7416 7.99844 6.67759 8.61192 7.13178C8.83566 7.29753 9.10002 7.37675 9.37058 7.37675C9.84215 7.37675 10.3328 7.13606 10.6607 6.69345C11.1753 5.99723 11.0949 5.06123 10.4814 4.60687Z" fill="black"/>
</g>
</svg>
