<svg width="16" height="14" viewBox="0 0 16 14" fill="none" xmlns="http://www.w3.org/2000/svg">
<g opacity="0.4">
<path d="M7.99995 8.74989C8.87894 8.74989 9.7382 8.4933 10.4691 8.01258C11.1999 7.53185 11.7696 6.84858 12.1059 6.04916C12.4423 5.24975 12.5303 4.37009 12.3588 3.52144C12.1874 2.67278 11.7641 1.89324 11.1425 1.28139C10.521 0.669546 9.72909 0.252873 8.86698 0.0840653C8.00488 -0.0847429 7.11128 0.00189559 6.29919 0.333025C5.48711 0.664154 4.793 1.2249 4.30466 1.94436C3.81632 2.66381 3.55566 3.50966 3.55566 4.37494C3.55566 5.53525 4.0239 6.64804 4.85736 7.4685C5.69083 8.28896 6.82125 8.74989 7.99995 8.74989ZM7.99995 1.31248C8.61524 1.31248 9.21672 1.49209 9.72832 1.8286C10.2399 2.16511 10.6387 2.6434 10.8741 3.20299C11.1096 3.76258 11.1712 4.37834 11.0512 4.9724C10.9311 5.56646 10.6348 6.11214 10.1998 6.54043C9.76467 6.96872 9.21035 7.26039 8.60687 7.37856C8.0034 7.49673 7.37788 7.43608 6.80942 7.20429C6.24096 6.9725 5.75509 6.57998 5.41325 6.07636C5.07141 5.57274 4.88895 4.98064 4.88895 4.37494C4.88895 3.56273 5.21671 2.78378 5.80014 2.20946C6.38356 1.63514 7.17486 1.31248 7.99995 1.31248Z" fill="black"/>
<path d="M15.7019 12.7967C13.423 11.2947 10.7424 10.4929 7.99992 10.4929C5.25748 10.4929 2.57682 11.2947 0.297977 12.7967C0.225023 12.8443 0.162325 12.9057 0.113462 12.9773C0.0645989 13.0488 0.0305282 13.1291 0.0131953 13.2136C-0.0218102 13.3843 0.0134853 13.5616 0.111317 13.7067C0.209149 13.8517 0.361503 13.9525 0.534864 13.987C0.708225 14.0214 0.888391 13.9867 1.03573 13.8904C3.09615 12.532 5.52009 11.8068 7.99992 11.8068C10.4798 11.8068 12.9037 12.532 14.9641 13.8904C15.0731 13.9625 15.2017 14.0006 15.333 13.9998C15.4762 13.9999 15.6157 13.9545 15.7307 13.8705C15.8457 13.7864 15.9302 13.6681 15.9716 13.5331C16.013 13.3982 16.0091 13.2536 15.9605 13.121C15.9119 12.9883 15.8212 12.8746 15.7019 12.7967Z" fill="black"/>
</g>
</svg>
