<svg width="13" height="15" viewBox="0 0 13 15" fill="none" xmlns="http://www.w3.org/2000/svg">
<path opacity="0.8" d="M9.96296 0.950002C8.81676 0.950002 7.87593 1.85734 7.87593 2.9697C7.87593 3.2796 7.95342 3.57584 8.08369 3.83855L4.55331 6.11834C4.17216 5.72729 3.63288 5.4803 3.03704 5.4803C1.89083 5.4803 0.95 6.38764 0.95 7.5C0.95 8.61236 1.89083 9.5197 3.03704 9.5197C3.63372 9.5197 4.17218 9.27367 4.55338 8.88165L8.08347 11.1552C7.95043 11.4205 7.87593 11.717 7.87593 12.0303C7.87593 13.1427 8.81676 14.05 9.96296 14.05C11.1092 14.05 12.05 13.1427 12.05 12.0303C12.05 10.9179 11.1092 10.0106 9.96296 10.0106C9.4739 10.0106 9.02428 10.1796 8.66782 10.4548L5.02585 8.11311C5.08986 7.91961 5.12407 7.71307 5.12407 7.5C5.12407 7.28505 5.09093 7.08134 5.02592 6.8867L8.65492 4.53928C9.0137 4.82084 9.46787 4.98939 9.96296 4.98939C11.1092 4.98939 12.05 4.08206 12.05 2.9697C12.05 1.85734 11.1092 0.950002 9.96296 0.950002ZM9.96296 1.83788C10.6168 1.83788 11.1352 2.34152 11.1352 2.9697C11.1352 3.59788 10.6168 4.10152 9.96296 4.10152C9.30916 4.10152 8.79074 3.59788 8.79074 2.9697C8.79074 2.34152 9.30916 1.83788 9.96296 1.83788ZM3.03704 6.36818C3.69084 6.36818 4.20926 6.87182 4.20926 7.5C4.20926 8.12816 3.69084 8.63182 3.03704 8.63182C2.38323 8.63182 1.86481 8.12816 1.86481 7.5C1.86481 6.87182 2.38323 6.36818 3.03704 6.36818ZM9.96296 10.8985C10.6168 10.8985 11.1352 11.4021 11.1352 12.0303C11.1352 12.6585 10.6168 13.1621 9.96296 13.1621C9.30916 13.1621 8.79074 12.6585 8.79074 12.0303C8.79074 11.4021 9.30916 10.8985 9.96296 10.8985Z" fill="#2D2D2D" stroke="#2D2D2D" stroke-width="0.1"/>
</svg>
