<svg width="11" height="11" viewBox="0 0 11 11" fill="none" xmlns="http://www.w3.org/2000/svg">
<g opacity="0.4">
<path d="M10.9968 0.541946C10.9938 0.482937 10.9771 0.425499 10.9481 0.374352C10.919 0.323205 10.8785 0.27981 10.8298 0.247734C10.7811 0.215658 10.7257 0.195817 10.668 0.189842C10.6103 0.183867 10.5521 0.191929 10.4981 0.213365L9.5875 0.576618C9.58384 0.452333 9.58017 0.374455 9.5786 0.352052C9.57325 0.256767 9.53231 0.167188 9.46418 0.101715C9.39606 0.0362413 9.30592 -0.000155442 9.21228 4.9903e-07H1.7885C1.69487 -0.000155442 1.60473 0.0362413 1.5366 0.101715C1.46847 0.167188 1.42753 0.256767 1.42218 0.352052C1.42218 0.374455 1.41695 0.452333 1.41328 0.576618L0.50271 0.213365C0.448661 0.191823 0.390365 0.183678 0.332623 0.189601C0.274882 0.195524 0.219347 0.215346 0.170593 0.247433C0.12184 0.27952 0.0812638 0.322955 0.0522068 0.374159C0.0231498 0.425363 0.00644364 0.482871 0.00346476 0.541946C-0.0146103 1.15633 0.0380815 1.77075 0.16046 2.37261C0.435202 3.70134 1.0344 4.64974 1.89369 5.11488C1.9089 5.1229 1.92464 5.12985 1.94079 5.13568C2.20244 6.00141 2.58394 6.82019 3.14442 7.42935C3.69285 8.02037 4.35904 8.35908 5.12884 8.43963V10.2532H3.3909C3.29374 10.2532 3.20057 10.2926 3.13187 10.3626C3.06317 10.4326 3.02458 10.5276 3.02458 10.6266C3.02458 10.7256 3.06317 10.8206 3.13187 10.8906C3.20057 10.9607 3.29374 11 3.3909 11H7.60988C7.70704 11 7.80021 10.9607 7.86891 10.8906C7.93761 10.8206 7.97621 10.7256 7.97621 10.6266C7.97621 10.5276 7.93761 10.4326 7.86891 10.3626C7.80021 10.2926 7.70704 10.2532 7.60988 10.2532H5.86671V8.43963C6.63651 8.35908 7.3027 8.02037 7.85113 7.42935C8.41422 6.82126 8.79729 6.00247 9.05738 5.13568C9.07353 5.12985 9.08926 5.1229 9.10448 5.11488C9.96377 4.64974 10.563 3.70134 10.8377 2.37261C10.9608 1.77083 11.0142 1.15641 10.9968 0.541946ZM0.742389 1.11056L1.41171 1.37727C1.42768 2.25507 1.51379 3.1301 1.66918 3.99365C0.951193 3.1754 0.780068 1.8456 0.742389 1.11056ZM7.31787 6.91781C6.82124 7.45122 6.22676 7.71366 5.50039 7.71366C4.77403 7.71366 4.17954 7.45122 3.68291 6.91781C2.2082 5.32824 2.12918 1.86267 2.14436 0.748909H8.85643C8.8716 1.86107 8.79258 5.32611 7.31787 6.91781ZM10.1208 2.22112C9.94336 3.07992 9.64402 3.6336 9.33265 3.99098C9.48736 3.12825 9.57312 2.25414 9.58907 1.37727L10.2589 1.11056C10.2408 1.4831 10.1947 1.85368 10.1208 2.21899V2.22112Z" fill="black"/>
<path d="M7.31787 6.91781C6.82124 7.45122 6.22676 7.71366 5.50039 7.71366C4.77403 7.71366 4.17954 7.45122 3.68291 6.91781C2.2082 5.32824 2.12918 1.86267 2.14436 0.748909H8.85643C8.8716 1.86107 8.79258 5.32611 7.31787 6.91781Z" fill="black"/>
<path d="M4.5 6C3.5 5.5 3 3.5 3 2H4.5V6Z" fill="white" stroke="white"/>
</g>
</svg>
