<svg width="72" height="72" viewBox="0 0 72 72" fill="none" xmlns="http://www.w3.org/2000/svg">
<g filter="url(#filter0_d)">
<circle cx="36" cy="28" r="20" fill="white"/>
</g>
<g opacity="0.4">
<path d="M42.5868 27.9425C43.0072 27.3818 42.9872 26.5511 42.4867 26.032C42.3266 25.8658 42.1064 25.7412 41.8861 25.6789C41.9662 25.492 42.0063 25.2843 42.0063 25.0767C42.0063 24.6821 41.8661 24.3291 41.6059 24.0591C41.1054 23.5399 40.3447 23.4984 39.8042 23.9137C39.7441 23.7476 39.664 23.5815 39.5439 23.4361C39.2837 23.1454 38.9233 22.9585 38.543 22.9585C38.1826 22.9377 37.8223 23.0831 37.562 23.353C37.522 23.2907 37.482 23.2077 37.4219 23.1661C37.1617 22.8754 36.8013 22.6885 36.4209 22.6885C36.0206 22.6677 35.6602 22.8339 35.4 23.1038L33.3981 25.1597C33.1779 24.2875 32.3771 23.6853 31.4963 23.7891C31.256 23.8099 31.0358 23.9345 30.8757 24.1006C30.5153 23.6853 29.9548 23.4361 29.3742 23.4984C28.8337 23.5607 28.4133 24.0383 28.4133 24.6198L28.4334 27.631C28.4334 28.4201 28.3333 29.23 28.1531 29.9361V29.9569C27.7527 31.4105 28.1531 32.9681 29.1741 34.0272C30.2351 35.1278 31.6564 35.73 33.1378 35.73C33.2579 35.73 33.3981 35.73 33.5182 35.7093C34.0787 35.8962 34.6793 36 35.2598 36C36.7012 36 38.1426 35.4393 39.2236 34.2971L43.0873 30.2684C43.3475 29.9984 43.4877 29.6246 43.4877 29.2508C43.4877 28.8562 43.3475 28.5032 43.0873 28.2332C42.9472 28.1086 42.767 28.0048 42.5868 27.9425ZM35.9805 23.7061C36.1006 23.5815 36.2608 23.5399 36.4009 23.5399C36.5611 23.5399 36.7012 23.623 36.8013 23.7268C36.8614 23.8099 36.9014 23.9137 36.9014 24.0176L33.5983 27.5272L33.4982 26.2604L35.9805 23.7061ZM29.7546 33.4457C28.9338 32.5943 28.6335 31.369 28.9338 30.2268C29.154 29.3962 29.2541 28.524 29.2541 27.6518L29.2341 24.6406C29.2341 24.516 29.3342 24.3914 29.4543 24.3914C29.9748 24.3291 30.4353 24.7236 30.4953 25.2428L30.5353 25.7412L30.5554 27.9217C30.5554 28.7109 30.4553 29.5 30.2951 30.2061C30.2951 30.2268 30.2751 30.2268 30.2751 30.2476C29.8747 31.7013 30.2751 33.2588 31.2961 34.3179C31.3962 34.4217 31.5163 34.5256 31.6164 34.6294C30.9157 34.3802 30.2751 33.9856 29.7546 33.4457ZM42.5067 29.6869L38.6431 33.7157C36.7813 35.647 33.7384 35.647 31.8766 33.7157C31.0759 32.885 30.7556 31.6597 31.0558 30.5176V30.4968C31.2761 29.6454 31.3761 28.7939 31.3761 27.9217V25.7412V25.6789V24.9105C31.3761 24.7859 31.4762 24.6613 31.5964 24.6613C32.1169 24.599 32.5773 24.9936 32.6373 25.5128L32.7775 27.6102C32.8175 27.9217 33.0177 28.1917 33.298 28.2955C33.5983 28.3994 33.8985 28.3163 34.1188 28.1086L38.0825 23.9968C38.2026 23.8722 38.3027 23.8099 38.5029 23.8307C38.6631 23.8307 38.8032 23.9137 38.9033 24.0176C39.0835 24.2252 39.0635 24.6406 38.8432 24.869L35.9005 27.9425C35.7403 28.1086 35.7403 28.3786 35.9005 28.5447C35.9805 28.6278 36.0806 28.6693 36.2007 28.6693C36.3008 28.6693 36.4209 28.6278 36.501 28.5447L39.4638 25.4713L40.2446 24.6613C40.4648 24.4329 40.8251 24.4329 41.0453 24.6613C41.1454 24.7652 41.2055 24.9105 41.2055 25.0767C41.2055 25.2428 41.1454 25.3882 41.0453 25.492L37.2818 29.3754C37.1216 29.5415 37.1216 29.8115 37.2818 29.9776C37.3618 30.0607 37.4619 30.1022 37.5821 30.1022C37.7022 30.1022 37.8023 30.0607 37.8823 29.9776L39.9843 27.7971L41.1054 26.6342C41.3256 26.4058 41.686 26.4058 41.9062 26.6342C42.1264 26.8626 42.1264 27.2364 41.9062 27.4649L41.1454 28.254L40.5849 28.8147L38.6631 30.8083C38.5029 30.9744 38.5029 31.2444 38.6631 31.4105C38.7432 31.4936 38.8433 31.5351 38.9634 31.5351C39.0835 31.5351 39.1836 31.4936 39.2636 31.4105L41.726 28.8562C41.9462 28.6278 42.3065 28.6278 42.5268 28.8562C42.6268 28.9601 42.6869 29.1054 42.6869 29.2716C42.6869 29.4377 42.6268 29.5831 42.5067 29.6869ZM39.9243 20.8403L40.9452 18.5767C41.0453 18.369 41.2856 18.2652 41.4858 18.369C41.686 18.4729 41.786 18.7221 41.686 18.9297L40.685 21.2141C40.6049 21.3802 40.4648 21.4633 40.3046 21.4633C40.2446 21.4633 40.1845 21.4425 40.1245 21.4217C39.9243 21.3179 39.8442 21.0479 39.9243 20.8403ZM37.7822 18.5352C37.7222 18.3067 37.8623 18.0783 38.0825 18.016C38.3027 17.9537 38.5229 18.0783 38.583 18.3067L39.2036 20.7157C39.2636 20.9441 39.1235 21.1725 38.9033 21.2348C38.8633 21.2348 38.8232 21.2556 38.8032 21.2556C38.623 21.2556 38.4629 21.131 38.4028 20.9441L37.7822 18.5352ZM43.7679 21.4425L41.5859 22.5016C41.5258 22.5224 41.4657 22.5431 41.4057 22.5431C41.2455 22.5431 41.1054 22.4601 41.0253 22.2939C40.9252 22.0863 41.0253 21.8163 41.2255 21.7332L43.4076 20.6741C43.6078 20.5703 43.868 20.6741 43.9481 20.8818C44.0682 21.0895 43.9681 21.3387 43.7679 21.4425Z" fill="black"/>
</g>
<defs>
<filter id="filter0_d" x="0" y="0" width="72" height="72" filterUnits="userSpaceOnUse" color-interpolation-filters="sRGB">
<feFlood flood-opacity="0" result="BackgroundImageFix"/>
<feColorMatrix in="SourceAlpha" type="matrix" values="0 0 0 0 0 0 0 0 0 0 0 0 0 0 0 0 0 0 127 0"/>
<feOffset dy="8"/>
<feGaussianBlur stdDeviation="8"/>
<feColorMatrix type="matrix" values="0 0 0 0 0 0 0 0 0 0 0 0 0 0 0 0 0 0 0.05 0"/>
<feBlend mode="normal" in2="BackgroundImageFix" result="effect1_dropShadow"/>
<feBlend mode="normal" in="SourceGraphic" in2="effect1_dropShadow" result="shape"/>
</filter>
</defs>
</svg>
