<svg width="16" height="16" viewBox="0 0 16 16" fill="none" xmlns="http://www.w3.org/2000/svg">
<path d="M8.00315 9.33008C6.85862 9.33008 5.75559 9.74528 4.89687 10.499L4.39589 10.9386L5.27561 11.9406L5.77659 11.501C6.39182 10.9609 7.18284 10.6634 8.00364 10.6634C8.82493 10.6634 9.61415 10.9596 10.2273 11.4977L10.7282 11.9373L11.608 10.9357L11.1068 10.4956C10.2502 9.74398 9.14817 9.33008 8.00315 9.33008Z" fill="#D86C65"/>
<path d="M8 0C3.5887 0 0 3.5887 0 8C0 12.4113 3.5887 16 8 16C12.411 16 16 12.4113 16 8C16 3.5887 12.411 0 8 0ZM8 14.6667C4.32406 14.6667 1.33333 11.6759 1.33333 8C1.33333 4.32406 4.32406 1.33333 8 1.33333C11.6759 1.33333 14.6667 4.32406 14.6667 8C14.6667 11.6759 11.6759 14.6667 8 14.6667Z" fill="#D86C65"/>
<path d="M4.66649 6H5.99982V7.33333H4.66649V6Z" fill="#D86C65"/>
<path d="M10 6H11.3333V7.33333H10V6Z" fill="#D86C65"/>
</svg>
