<svg width="102" height="18" viewBox="0 0 102 18" fill="none" xmlns="http://www.w3.org/2000/svg">
<path d="M93 0.00012207L95.645 5.35955L101.56 6.21897L97.2798 10.3907L98.2901 16.2813L93 13.5001L87.7099 16.2813L88.7202 10.3907L84.4405 6.21897L90.355 5.35955L93 0.00012207Z" fill="#E9E9E9"/>
<path d="M72 0.00012207L74.645 5.35955L80.5595 6.21897L76.2798 10.3907L77.2901 16.2813L72 13.5001L66.7099 16.2813L67.7202 10.3907L63.4405 6.21897L69.355 5.35955L72 0.00012207Z" fill="#FFD800"/>
<path d="M51 0.00012207L53.645 5.35955L59.5595 6.21897L55.2798 10.3907L56.2901 16.2813L51 13.5001L45.7099 16.2813L46.7202 10.3907L42.4405 6.21897L48.355 5.35955L51 0.00012207Z" fill="#FFD800"/>
<path d="M30 0.00012207L32.645 5.35955L38.5595 6.21897L34.2798 10.3907L35.2901 16.2813L30 13.5001L24.7099 16.2813L25.7202 10.3907L21.4405 6.21897L27.355 5.35955L30 0.00012207Z" fill="#FFD800"/>
<path d="M9 0.00012207L11.645 5.35955L17.5595 6.21897L13.2798 10.3907L14.2901 16.2813L9 13.5001L3.70993 16.2813L4.72025 10.3907L0.440492 6.21897L6.35497 5.35955L9 0.00012207Z" fill="#FFD800"/>
</svg>
