<svg width="15" height="17" viewBox="0 0 15 17" fill="none" xmlns="http://www.w3.org/2000/svg">
<path d="M9.19775 14.4058H5.58154V17H2.75146V14.4058H0.449219V12.126H2.75146V10.9243H0.449219V8.64453H2.75146V0.648438H9.00684C10.8112 0.648438 12.2524 1.12012 13.3306 2.06348C14.4087 2.99935 14.9478 4.24593 14.9478 5.80322C14.9478 7.39046 14.4349 8.63704 13.4092 9.54297C12.3835 10.4414 10.9572 10.9019 9.13037 10.9243H5.58154V12.126H9.19775V14.4058ZM5.58154 8.64453H8.96191C9.98014 8.64453 10.7588 8.40869 11.2979 7.93701C11.8369 7.46533 12.1064 6.76156 12.1064 5.82568C12.1064 4.98714 11.8407 4.30208 11.3091 3.77051C10.785 3.23893 10.0588 2.96191 9.13037 2.93945H5.58154V8.64453Z" fill="#506AA1"/>
</svg>
