<svg width="20" height="20" viewBox="0 0 20 20" fill="none" xmlns="http://www.w3.org/2000/svg">
<circle cx="10" cy="10" r="10" fill="#D86C65"/>
<path d="M10.415 5.4751C10.8044 5.4751 11.1577 5.53434 11.4751 5.65283C11.7967 5.76709 12.0697 5.93001 12.2939 6.1416C12.5225 6.35319 12.6981 6.60921 12.8208 6.90967C12.9478 7.20589 13.0112 7.53385 13.0112 7.89355C13.0112 8.20247 12.9668 8.49023 12.8779 8.75684C12.7891 9.01921 12.6706 9.271 12.5225 9.51221C12.3743 9.74919 12.2008 9.98193 12.002 10.2104C11.8031 10.4347 11.5936 10.6611 11.3735 10.8896L9.5835 12.7622C9.77393 12.703 9.96436 12.6585 10.1548 12.6289C10.3452 12.5951 10.5229 12.5781 10.688 12.5781H12.5986C12.7594 12.5781 12.8885 12.6247 12.9858 12.7178C13.0874 12.8109 13.1382 12.9336 13.1382 13.0859V14H7.43799V13.4858C7.43799 13.3885 7.45703 13.2848 7.49512 13.1748C7.53743 13.0605 7.60938 12.9548 7.71094 12.8574L10.1611 10.3374C10.3685 10.1216 10.5505 9.91634 10.707 9.72168C10.8678 9.52702 11.0011 9.33447 11.1069 9.14404C11.217 8.94938 11.2995 8.75472 11.3545 8.56006C11.4095 8.36117 11.437 8.15381 11.437 7.93799C11.437 7.54867 11.3397 7.25456 11.145 7.05566C10.9504 6.85677 10.6753 6.75732 10.3198 6.75732C10.1675 6.75732 10.0278 6.7806 9.90088 6.82715C9.77393 6.8737 9.65967 6.93717 9.55811 7.01758C9.45654 7.09798 9.36979 7.1932 9.29785 7.30322C9.22591 7.41325 9.1709 7.53174 9.13281 7.65869C9.0651 7.85335 8.97201 7.98031 8.85352 8.03955C8.73926 8.0988 8.58057 8.11149 8.37744 8.07764L7.56494 7.93799C7.62842 7.52751 7.74268 7.16992 7.90771 6.86523C8.07275 6.55632 8.27799 6.30029 8.52344 6.09717C8.77311 5.88981 9.05876 5.73535 9.38037 5.63379C9.70199 5.52799 10.0469 5.4751 10.415 5.4751Z" fill="white"/>
</svg>
