<svg width="20" height="20" viewBox="0 0 20 20" fill="none" xmlns="http://www.w3.org/2000/svg">
<g opacity="0.2" filter="url(#filter0_b)">
<path d="M9.99881 12.0024C11.1021 12.0024 12.0015 11.1046 12.0015 10.0005C12.0015 9.56464 11.859 9.16223 11.6229 8.83355C11.2592 8.32924 10.6679 7.99854 10 7.99854C9.33177 7.99854 8.74085 8.32883 8.37632 8.83314C8.13947 9.16183 7.99808 9.56423 7.99768 10.0001C7.99647 11.1042 8.89513 12.0024 9.99881 12.0024Z" fill="black"/>
<path d="M14.3705 7.54989V5.87181V5.62207L14.1195 5.62288L12.4423 5.62811L12.4487 7.55633L14.3705 7.54989Z" fill="black"/>
<path d="M10 0C4.48602 0 0 4.48602 0 10C0 15.5136 4.48602 20 10 20C15.5136 20 20 15.5136 20 10C20 4.48602 15.5144 0 10 0ZM15.6872 8.83308V13.4895C15.6872 14.7023 14.7011 15.688 13.4891 15.688H6.51092C5.29848 15.688 4.31282 14.7023 4.31282 13.4895V8.83308L4.31282 6.51132C4.31282 5.29888 5.29848 4.31322 6.51092 4.31322L13.4887 4.31322C14.7011 4.31322 15.6872 5.29888 15.6872 6.51132V8.83308Z" fill="black"/>
<path d="M13.1115 10.0004C13.1115 11.7152 11.7162 13.1113 10.0006 13.1113C8.28508 13.1113 6.89017 11.7152 6.89017 10.0004C6.89017 9.58795 6.97234 9.1936 7.11896 8.8335H5.42114L5.42114 13.4899C5.42114 14.0917 5.90974 14.5791 6.51113 14.5791H13.4889C14.0895 14.5791 14.5789 14.0917 14.5789 13.4899V8.8335H12.8803C13.0281 9.1936 13.1115 9.58795 13.1115 10.0004Z" fill="black"/>
</g>
<defs>
<filter id="filter0_b" x="-50" y="-50" width="120" height="120" filterUnits="userSpaceOnUse" color-interpolation-filters="sRGB">
<feFlood flood-opacity="0" result="BackgroundImageFix"/>
<feGaussianBlur in="BackgroundImage" stdDeviation="25"/>
<feComposite in2="SourceAlpha" operator="in" result="effect1_backgroundBlur"/>
<feBlend mode="normal" in="SourceGraphic" in2="effect1_backgroundBlur" result="shape"/>
</filter>
</defs>
</svg>
