<svg width="15" height="15" viewBox="0 0 15 15" fill="none" xmlns="http://www.w3.org/2000/svg">
<g opacity="0.8">
<path d="M6.85283 6.89898H6.80283H0.518841C0.258057 6.89898 0.0507324 7.10708 0.0507324 7.37005C0.0507324 7.63396 0.258981 7.84863 0.518841 7.84863H6.8033H6.8533V7.89863V14.219C6.8533 14.482 7.06809 14.6976 7.32887 14.6976C7.58873 14.6976 7.79698 14.4829 7.79698 14.219V7.89863V7.84863H7.84698H14.131C14.3918 7.84863 14.6065 7.63302 14.6065 7.37005C14.6065 7.10801 14.3927 6.89898 14.131 6.89898H7.84698H7.79698V6.84898V0.528576C7.79698 0.264664 7.58873 0.05 7.32887 0.05C7.06813 0.05 6.8533 0.265561 6.85283 0.528576C6.85283 0.528603 6.85283 0.52863 6.85283 0.528656M6.85283 6.89898L6.85283 0.528656M6.85283 6.89898V6.84898L6.85283 0.528656M6.85283 6.89898L6.85283 0.528656" fill="#2D2D2D" stroke="white" stroke-width="0.1"/>
</g>
</svg>
