<svg width="969" height="110" viewBox="0 0 969 110" fill="none" xmlns="http://www.w3.org/2000/svg">
<circle cx="484" cy="55" r="54.5" stroke="#E9E9E9"/>
<path d="M483.5 92C504.211 92 521 75.2107 521 54.5C521 33.7893 504.211 17 483.5 17C462.789 17 446 33.7893 446 54.5C446 75.2107 462.789 92 483.5 92Z" fill="#FFD800"/>
<path d="M473.918 71.4164L493.2 90.6987C509.17 86.44 521 71.8896 521 54.5C521 54.1451 521 53.7902 521 53.4353L505.858 39.4763L473.918 71.4164Z" fill="#EAC600"/>
<path d="M484.446 62.8985C486.103 64.5546 486.103 67.3937 484.446 69.0499L481.016 72.4805C479.36 74.1366 476.521 74.1366 474.864 72.4805L459.841 57.3385C458.185 55.6824 458.185 52.8433 459.841 51.1871L463.271 47.7565C464.928 46.1004 467.767 46.1004 469.423 47.7565L484.446 62.8985Z" fill="white"/>
<path d="M497.577 36.7553C499.234 35.0991 502.073 35.0991 503.729 36.7553L507.159 40.1859C508.816 41.842 508.816 44.6812 507.159 46.3373L481.134 72.2443C479.478 73.9004 476.639 73.9004 474.983 72.2443L471.552 68.8137C469.896 67.1575 469.896 64.3184 471.552 62.6622L497.577 36.7553Z" fill="white"/>
<line x1="539" y1="54.5" x2="969" y2="54.5" stroke="#E9E9E9"/>
<line y1="54.5" x2="429" y2="54.5" stroke="#E9E9E9"/>
</svg>
